<svg width="1512" height="648" viewBox="0 0 1512 648" fill="none" xmlns="http://www.w3.org/2000/svg">
<g opacity="0.2">
<path d="M674.041 636.996C643.592 637.84 613.158 640.37 583.761 645.177C554.364 649.985 526.019 657.084 499.022 666.221C414.941 695.741 329.067 733.569 280.483 804.769C264.863 827.302 253.042 850.764 244.262 874.858C223.234 935.304 213.698 1001.32 235.071 1062.54C241.336 1083.34 249.819 1103.72 260.26 1123.46C302.054 1202.39 375.169 1270.9 461.996 1314.21C480.608 1323.49 499.828 1331.62 519.525 1338.44C585.833 1358.07 655.232 1361.04 723.53 1366.38C745.249 1367.77 766.985 1368.59 788.539 1368.32C853.22 1367.53 916.322 1356.96 972.716 1323.21C1020.43 1294.66 1047.97 1253.87 1067.85 1209.19C1074.47 1194.31 1080.24 1178.98 1085.64 1163.54C1105.43 1096.26 1143.59 1030.99 1130.59 957.556C1119.31 890.799 1070.74 839.63 1025.38 789.278C1011.47 773.773 996.951 758.591 982.121 743.76C967.323 728.916 952.181 714.409 937.153 700.197C889.44 656.437 824.382 626.777 754.078 633.074C729.531 633.046 702.879 634.438 674.025 636.996H674.041Z" stroke="#0E2330" stroke-opacity="0.6" stroke-width="0.53" stroke-miterlimit="10"/>
<path d="M673.186 618.778C648.261 620.296 622.842 622.363 597.786 625.61C572.729 628.871 548.346 633.693 524.769 639.948C442.71 663.1 362.049 693.506 298.716 746.909C282.094 760.657 268.283 775.769 256.823 791.864C245.347 807.96 236.206 825.053 228.84 842.793C202.435 913.051 189.413 990.183 209.308 1063.21C215.638 1084 224.976 1104.03 237.998 1122.94C292.929 1203.91 356.919 1282.81 448.711 1329.4C467.076 1338.72 486.543 1346.76 507.292 1353.25C598 1379.55 696.023 1384.01 791.334 1382.77C813.958 1382.42 836.565 1381.59 859.122 1380.28C914.645 1378.06 977.09 1372.86 1017.01 1335.05C1063.21 1290.54 1079.63 1234.37 1099.87 1179.72C1106.63 1161.5 1113.82 1143.45 1122.71 1126.03C1147.13 1066.56 1170.56 1005 1152.34 940.477C1131.52 869.277 1074.26 818.095 1025.35 762.724C1012.36 748.821 998.825 735.228 984.916 721.958C957.097 695.404 927.65 670.143 898.154 646.035C855.653 611.173 794.919 603.765 738.738 611.721C718.811 613.605 696.813 615.854 673.219 618.764L673.186 618.778Z" stroke="#0E2330" stroke-opacity="0.6" stroke-width="0.53" stroke-miterlimit="10"/>
<path d="M671.92 600.096C646.485 602.528 620.261 605.213 594.037 608.671C567.764 612.073 542.181 617.119 517.47 623.656C423.622 652.726 324.727 680.911 257.942 749.144C243.67 763.82 231.948 779.466 222.313 795.828C171.197 894.524 151.253 1017.64 211.166 1117.37C218.679 1129.69 227.36 1141.69 237.127 1153.37C297.845 1228.16 356.163 1303.46 443.22 1347.15C460.631 1355.91 479.194 1363.41 499.17 1369.47C619.669 1401.85 750.658 1404.81 876.419 1402.93C900.522 1401.36 924.395 1398.49 947.857 1393.88C971.335 1389.27 994.419 1382.93 1016.98 1374.39C1049.07 1362.53 1066.42 1334.34 1077.69 1306.9C1095.25 1262.96 1109.41 1218.6 1126.3 1175.06C1131.95 1160.54 1137.92 1146.1 1144.55 1131.75C1172.25 1062.14 1214.77 981.313 1168.78 910.099C1130.62 850.764 1080.29 801.071 1033.81 747.443C1018.8 729.984 1003.1 712.989 986.478 696.528C953.249 663.62 916.339 632.962 874.709 605.269C834.805 579.305 783.623 580.05 737.571 589.384C717.759 592.519 695.727 596.019 671.92 600.11V600.096Z" stroke="#0E2330" stroke-opacity="0.6" stroke-width="0.53" stroke-miterlimit="10"/>
<path d="M669.273 579.91C644.447 584.394 617.598 587.909 590.289 591.732C562.799 595.289 536.032 600.546 510.17 607.378C419.281 634.93 323.872 660.148 251.003 718.008C238.475 727.904 227.673 738.587 218.334 749.932C208.995 761.276 201.12 773.252 194.33 785.721C146.913 890.082 125.226 1016.16 190.104 1119C200.956 1137.47 213.583 1155.26 227.492 1172.55C269.22 1224.39 322.556 1271.68 370.697 1318.77C391.084 1338.8 415.155 1354.56 441.494 1367C581.493 1427.05 743.72 1418.15 895.458 1423.75C920.071 1422.89 944.519 1420.87 968.705 1417.24C992.89 1413.61 1016.81 1408.38 1040.39 1401.09C1068.14 1392.19 1086.36 1370.68 1095.04 1346.94C1108.92 1309.49 1119.32 1271.66 1130.62 1234.17C1136.26 1215.44 1142.15 1196.77 1148.8 1178.27C1188.72 1078.46 1269.4 952.369 1161.83 860.407C1121.05 825.545 1086.36 789.207 1053.64 750.1C1040.29 733.625 1027.06 717.305 1013.28 701.406C972.075 653.654 925.875 609.711 865.157 572.628C826.125 548.9 778.412 555.563 735.697 565.993C716.033 570.506 694.083 575.398 669.257 579.91H669.273Z" stroke="#0E2330" stroke-opacity="0.6" stroke-width="0.53" stroke-miterlimit="10"/>
<path d="M667.004 559.977C642.063 565.867 614.753 570.407 586.556 574.779C557.85 578.49 529.899 583.972 502.886 591.085C412.36 619.354 317.805 638.641 238.87 691.299C223.447 701.392 210.377 712.582 199.262 724.629C188.148 736.69 178.99 749.622 171.295 763.201C121.774 873.016 96.6184 1006.52 164.653 1114.34C175.587 1131.92 187.983 1148.82 201.531 1165.29C242.125 1214.73 293.521 1260.53 336.893 1309.86C348.386 1323.01 361.013 1334.98 374.626 1345.76C388.24 1356.54 402.84 1366.16 418.246 1374.62C561.565 1449.3 738.525 1434.47 900.045 1444.33C925.595 1444.26 951.227 1443.29 976.925 1441.02C1002.62 1438.76 1028.42 1435.22 1054.28 1430.03C1091.59 1422.61 1116.74 1396.66 1124.55 1364.02C1134.53 1322.86 1142.11 1282.81 1152.04 1243.65C1157.01 1224.07 1162.57 1204.71 1169.32 1185.52C1204.36 1085.88 1307.58 961.295 1198.28 869.319C1137.56 818.882 1085.5 765.479 1037.46 707.352C1025.56 693.239 1013.38 679.336 1000.8 665.673C963.065 624.682 921.879 585.814 874.709 549.659C834.806 519.253 779.283 525.185 733.296 541.731C713.797 547.677 691.946 554.101 667.004 559.991V559.977Z" stroke="#0E2330" stroke-opacity="0.6" stroke-width="0.53" stroke-miterlimit="10"/>
<path d="M664.374 539.51C639.333 546.89 611.663 552.611 582.759 557.77C552.884 561.706 523.75 567.399 495.586 574.793C403.103 608.84 289.493 616.571 212.021 672.715C196.533 683.947 182.476 697.105 170.342 712.807C83.5967 844.832 53.2294 1031.72 173.811 1156.32C187.26 1170.97 200.429 1185.16 213.451 1199.13C252.532 1241.02 290.265 1280.93 329.955 1325.43C341.892 1338.59 354.732 1350.65 368.428 1361.56C382.124 1372.5 396.674 1382.27 412.014 1390.98C555.499 1470.81 734.201 1450.78 896.856 1461.74C917.227 1462.6 937.614 1463.39 958.001 1464.13C1007.44 1465.62 1058.62 1467.1 1104.61 1447.08C1137.57 1433 1153.19 1403.32 1155.79 1374.39C1160.13 1332.85 1165.11 1291.7 1173.99 1251.42C1178.43 1231.28 1183.86 1211.36 1190.71 1191.71C1199.16 1165.98 1213.91 1142.98 1224.32 1117.77C1252.94 1044.35 1320.6 956.08 1249.47 887.847C1171.39 813.681 1085.52 751.379 1022.32 669.988C1006.21 651.714 989.766 633.496 972.979 615.208C956.193 596.919 939.061 578.56 921.567 560.019C899.881 536.291 874.725 514.783 841.76 503.65C804.455 491.04 764.551 503.65 730.616 516.835C711.215 524.187 689.431 532.13 664.39 539.51H664.374Z" stroke="#0E2330" stroke-opacity="0.6" stroke-width="0.53" stroke-miterlimit="10"/>
<path d="M661.891 519.014C640.928 526.408 617.96 532.551 593.939 538.048C568.504 541.801 542.904 546.004 517.93 551.416C492.955 556.828 468.655 563.477 444.7 570.843C363.529 602.008 263.252 603.596 191.929 648.326C177.658 657.267 164.554 667.95 152.98 680.925C76.642 772.156 64.4918 889.337 67.9609 997.619C70.5587 1056.95 108.736 1111.83 153.785 1156.34C165.557 1168.09 176.902 1179.79 188.016 1191.47C243.539 1249.85 292.929 1307.52 350.77 1366.24C370.713 1386.64 394.373 1402.87 420.235 1416.26C564.163 1490.1 738.525 1467.1 898.648 1481.5C919.446 1482.54 940.261 1483.41 961.109 1483.97C1002.79 1485.09 1044.53 1484.91 1086.39 1482.68C1134.11 1480.45 1180.08 1451.53 1183.54 1407.77C1188.76 1353.25 1184.68 1297.91 1196.47 1244.74C1200.4 1227.02 1206.1 1209.53 1214.49 1192.41C1248.6 1088.85 1383.93 955.349 1259.88 861.897C1190.48 809.984 1114.15 767.7 1066.27 700.282C1054.41 685.297 1042.67 670.382 1030.77 655.622C983.173 596.568 932.846 540.016 869.53 488.834C825.286 453.227 763.696 472.513 718.17 496.256C701.482 503.833 682.87 511.634 661.908 519.028L661.891 519.014Z" stroke="#0E2330" stroke-opacity="0.6" stroke-width="0.53" stroke-miterlimit="10"/>
<path d="M658.948 497.928C637.804 506.503 614.573 513.757 590.174 520.251C564.196 524.75 537.725 529.262 511.781 534.871C485.836 540.48 460.582 547.382 435.624 554.958C368.099 576.353 299.571 589.694 228.429 606.014C203.274 611.946 177.905 619.917 156.219 631.697C134.532 643.476 116.529 659.052 106.121 680.18C61.0062 781.054 32.3818 889.337 37.5937 997.619C40.1915 1067.34 97.4569 1122.97 148.343 1173.63C159.408 1184.99 170.424 1196.04 181.407 1206.99C225.355 1250.77 268.925 1292.81 308.253 1344.72C319.745 1359.55 332.323 1373.27 345.953 1385.74C359.599 1398.25 374.298 1409.52 390.016 1419.69C532.925 1512.35 719.436 1486.39 886.678 1497.75C906.72 1499.07 926.795 1500.58 946.903 1502.07C967.028 1503.59 987.201 1505.05 1007.44 1506.42C1085.52 1512.35 1213.9 1513.84 1213.9 1423.35C1213.9 1367.17 1206.09 1309.32 1217.04 1253.84C1220.69 1235.34 1226.42 1217.12 1235.24 1199.3C1241.22 1181.01 1250.53 1161.83 1261.21 1142.14C1283.28 1101.46 1308.45 1062.89 1326.62 1020.52C1335.17 1000.15 1341.25 979.991 1342.94 960.381C1346.33 921.162 1332.16 884.163 1285.02 852.268C1204.34 797.389 1119.34 755.104 1065.71 680.742C1055.01 667.711 1044.35 654.652 1033.63 641.466C1012.18 615.095 990.391 588.232 967.537 560.047C943.253 529.641 920.696 503.678 892.926 475.493C844.342 426.546 768.004 436.92 715.638 471.852C698.835 480.427 680.092 489.368 658.948 497.943V497.928Z" stroke="#0E2330" stroke-opacity="0.6" stroke-width="0.53" stroke-miterlimit="10"/>
<path d="M656.071 476.772C634.664 486.43 611.087 494.723 586.293 502.202C559.79 507.501 532.579 512.506 505.648 518.311C478.717 524.117 452.526 531.272 426.499 539.004C343.815 566.696 257.07 574.118 170.309 594.881C146.025 601.192 123.681 611.749 105.891 626.13C88.1014 640.496 74.8826 658.672 68.717 680.166C37.5934 786.227 -8.39311 891.558 7.22624 1003.54C16.7623 1071.03 70.5585 1126.65 125.062 1173.38C141.29 1186.67 156.498 1200.06 171.081 1213.64C214.799 1254.36 252.697 1296.8 290.709 1343.5C300.854 1355.95 310.998 1368.7 321.258 1381.8C388.914 1466.36 512.093 1500.47 626.608 1509.37C720.291 1516.79 813.974 1504.91 906.72 1517.75C931.481 1520.45 956.242 1523.37 980.97 1525.69C1055.14 1532.73 1128.88 1534.22 1200.87 1513.83C1242.52 1501.96 1247.72 1458.95 1242.52 1425.58C1234.71 1366.61 1226.42 1306.4 1239.91 1249.37C1244.41 1230.36 1251.35 1211.7 1261.62 1193.53C1296.3 1124.46 1333.59 1056.22 1365.7 986.5C1376.53 964.247 1381.32 939.591 1377.08 916.692C1372.85 893.793 1359.62 872.651 1334.46 857.455C1239.03 798.12 1136.67 758.071 1076.82 671.942C1063.11 655.186 1049.42 638.416 1035.7 621.561C994.567 570.97 953.217 519.436 910.272 464.374C861.687 402.073 772.344 401.328 713.501 447.772C696.434 457.205 677.461 467.143 656.054 476.801L656.071 476.772Z" stroke="#0E2330" stroke-opacity="0.6" stroke-width="0.53" stroke-miterlimit="10"/>
<path d="M654.229 456.685C605.793 479.176 552.884 492.531 499.516 501.752C471.614 507.754 444.453 515.148 417.473 523.133C343.832 546.679 267.494 555.577 188.542 565.951C159.49 569.662 129.764 576.705 104.938 589.033C80.1111 601.361 60.1512 618.975 50.6152 643.828C12.4546 759.533 -37.0011 875.237 -25.7223 996.86C-17.9126 1076.96 56.6822 1136.29 122.086 1189.75C134.598 1200.07 147.011 1210.18 159.277 1220.47C183.774 1241.05 207.631 1262.37 229.334 1287.59C261 1324.31 286.796 1365.28 317.904 1400.71C328.278 1412.56 339.245 1423.79 351.214 1434.22C414.102 1489.32 501.719 1515.29 589.335 1524.93C696.04 1536.05 800.131 1527.9 905.816 1534.35C931.925 1535.91 958.05 1537.92 984.225 1539.87C1010.42 1541.88 1036.66 1543.85 1062.96 1545.71C1127.15 1550.16 1202.63 1562.03 1254.67 1520.49C1275.49 1504.17 1275.49 1478.22 1272.02 1455.22C1266.59 1419.38 1259.37 1383.01 1256.15 1346.98C1254.54 1328.96 1253.93 1311.02 1255.06 1293.28C1271.14 1180.81 1352.69 1085.87 1399.54 980.554C1406.47 962.757 1412.54 944.947 1412.54 925.759C1412.97 901.004 1404.3 877.093 1380.45 858.172C1325.8 815.902 1259.87 797.36 1198.28 760.264C1159.24 736.535 1128.01 709.826 1101.39 678.605C1088.22 663.241 1075.36 647.722 1062.59 632.104C1024.38 585.195 986.708 537.289 949.304 485.839C917.21 442.824 881.647 393.132 818.315 388.676C778.411 385.71 743.72 406.472 711.922 424.213C694.445 434.306 675.094 445.102 654.213 456.671L654.229 456.685Z" stroke="#0E2330" stroke-opacity="0.6" stroke-width="0.53" stroke-miterlimit="10"/>
<path d="M651.747 435.894C602.34 459.89 548.544 475.465 493.383 485.193C464.512 491.392 436.397 499.039 408.463 507.291C331.681 531.834 251.003 542.209 169.454 545.189C108.736 547.789 64.9192 573.922 37.0509 611.004C27.7451 623.361 20.2314 636.94 14.2467 651.25C7.24264 666.811 2.03085 682.387 -1.4383 699.452C-14.4435 761.754 -29.1914 818.123 -48.2799 878.934C-61.2851 921.204 -64.7543 962.743 -57.816 1006.5C-43.9395 1083.63 32.3982 1131.11 90.6337 1183.47C105.908 1196.25 121.313 1208.62 136.637 1220.82C151.927 1233.02 167.152 1245.08 181.604 1257.2C223.234 1291.68 249.754 1332.01 278.707 1373.8C288.358 1387.73 298.273 1401.82 309.124 1415.92C371.585 1495.29 482.614 1535.33 590.19 1544.23C726.391 1555.37 861.704 1542.01 996.277 1557.33C1018.88 1559.25 1041.51 1561.12 1064.2 1562.9C1086.87 1564.69 1109.59 1566.39 1132.36 1567.97C1203.49 1573.16 1318 1565.01 1300.66 1480.45C1296.86 1461.14 1292.5 1441.76 1288.46 1422.4C1284.41 1403.03 1280.66 1383.69 1278.1 1364.43C1255.56 1232.74 1356.18 1120 1417.77 1004.31C1431.65 978.347 1446.39 951.652 1448.09 922.427C1448.56 907.063 1444.88 891.768 1435.11 876.741C1391.74 809.253 1293.72 798.12 1218.25 753.629C1174.88 729.155 1141.04 701.715 1111.68 667.767C1096.39 649.816 1081.51 631.683 1066.76 613.408C1022.63 558.557 979.49 502.483 937.186 442.121C912.031 406.515 879.066 373.143 828.755 365.735C783.656 359.803 746.351 382.055 711.051 401.496C692.998 412.081 673.137 423.566 651.763 435.936L651.747 435.894Z" stroke="#0E2330" stroke-opacity="0.6" stroke-width="0.53" stroke-miterlimit="10"/>
<path d="M649.56 415.483C598.855 441.362 543.332 456.938 487.234 468.647C457.376 475.057 428.324 482.943 399.469 491.504C313.448 518.494 223.234 522.95 133.003 529.613C88.7592 532.945 51.4536 550.193 24.9007 575.777C11.616 588.569 1.01122 603.456 -6.43675 619.72C-10.991 631.219 -16.2029 642.338 -17.9293 654.947C-25.739 726.892 -53.4921 791.414 -76.0497 861.138C-90.7977 909.34 -100.334 956.066 -88.1999 1005.76C-65.6423 1101.43 27.1695 1160.02 110.215 1214.07C124.207 1223.9 137.771 1233.82 150.776 1244.2C176.803 1264.96 200.659 1287.59 221.474 1315.03C241.714 1341.49 259.454 1369.99 278.329 1397.15C287.766 1410.73 297.499 1423.97 307.973 1436.5C379.345 1527.15 512.932 1566.46 635.239 1567.95C755.821 1569.42 876.402 1559.05 995.701 1573.67C1022.32 1576.09 1048.94 1578.36 1075.61 1580.32C1102.27 1582.27 1128.98 1583.9 1155.73 1585.01C1200.82 1587.23 1248.54 1588.72 1291.06 1571.66C1328.36 1556.83 1334.43 1519 1327.49 1487.1C1322.94 1467.63 1317.46 1448.4 1312.23 1429.3C1307 1410.21 1302.02 1391.25 1298.49 1372.36C1272.84 1230.48 1396.02 1112.55 1455.01 986.472C1464.55 965.709 1472.35 944.933 1474.82 922.497C1476.56 908.623 1476.25 894.383 1473.23 879.679C1455.01 792.159 1328.36 786.227 1246.81 749.889C1189.56 723.926 1138.38 690.554 1104.54 643.828C1095.29 631.345 1086.33 619.059 1077.56 606.928C1033.73 546.215 994.814 488.946 949.271 426.518C927.585 396.857 903.3 370.894 866.866 354.573C813.958 330.845 754.095 351.607 710.837 379.567C692.045 390.433 671.542 402.452 649.527 415.483H649.56Z" stroke="#0E2330" stroke-opacity="0.6" stroke-width="0.53" stroke-miterlimit="10"/>
<path d="M647.751 395.508C604.938 419.11 556.353 434.685 507.539 446.507C480.92 451.708 454.663 457.767 429.08 464.894C380.249 478.431 333.408 492.53 281.354 499.939C188.526 511.803 85.3066 494.007 9.84045 550.376C-15.3149 569.283 -28.7641 593.574 -35.9162 619.72C-48.2801 714.283 -87.3119 800.312 -115.936 893.765C-132.411 949.389 -130.685 1006.5 -98.5909 1057.67C-46.5373 1142.23 49.7438 1186.72 130.093 1245.12C148.36 1258.3 165.902 1272.06 181.966 1287.27C198.029 1302.48 212.613 1319.11 224.977 1338.03C241.467 1363.74 256.873 1391.35 274.169 1417.56C282.818 1430.66 291.926 1443.44 301.89 1455.52C384.59 1556.83 542.477 1593.91 681.259 1587.98C779.283 1583.52 876.435 1573.15 973.818 1586.42C996.195 1588.72 1018.56 1591.01 1040.93 1593.08C1108.05 1599.29 1175.27 1603.55 1243.38 1600.59C1276.34 1599.1 1312.77 1594.66 1337.06 1572.4C1357.87 1553.12 1357.87 1527.9 1351.81 1503.42C1348.49 1488.96 1344.56 1474.58 1340.49 1460.27C1336.45 1445.96 1332.26 1431.7 1328.44 1417.52C1313.63 1364.74 1302.37 1306.88 1329.25 1256.45C1362.21 1195.63 1395.18 1137.78 1428.14 1076.97C1442.89 1051.75 1460.24 1028.77 1475.86 1003.55C1500.14 963.502 1520.1 921.218 1513.16 875.982C1510.12 857.061 1501.08 842.287 1488.11 830.325C1449.19 794.451 1375.02 784.02 1322.33 763.989C1246.86 735.059 1171.39 700.942 1126.31 640.637C1112.58 623.839 1099.17 606.914 1085.98 589.82C1046.52 538.512 1009.28 485.671 974.476 429.484C947.577 385.724 909.417 345.675 853.023 329.355C799.243 314.524 745.463 337.508 703.356 363.612C685.83 373.269 667.366 384.009 647.751 395.508V395.508Z" stroke="#0E2330" stroke-opacity="0.6" stroke-width="0.53" stroke-miterlimit="10"/>
<path d="M646.321 376.039C601.469 399.078 552.884 416.13 502.146 429.611C474.771 435.149 447.692 441.376 421.303 448.728C317.805 487.329 205.033 488.074 93.9874 495.497C21.119 500.501 -31.2468 543.895 -53.6236 598.747C-61.088 617.035 -65.445 636.574 -67.0727 656.353C-76.9047 735.059 -111.612 807.749 -142.835 882.659C-206.167 1035.45 -55.2185 1157.81 82.9389 1228.87C96.9469 1237.46 110.889 1246.08 124.338 1254.98C177.247 1289.84 213.681 1335.08 239.708 1385.51C248.603 1402.94 258.254 1420.6 269.171 1437.59C280.105 1454.65 292.32 1471.04 306.312 1486.29C435.755 1619.89 655.232 1615.43 841.727 1596.89C890.312 1591.7 937.153 1596.15 984.834 1601.47C1007.85 1603.72 1030.84 1605.97 1053.82 1608.01C1122.79 1614.12 1191.75 1618.4 1261.58 1615.43C1298.01 1613.96 1338.78 1608.75 1363.07 1581.32C1374.35 1567.96 1378.03 1553.31 1377.82 1538.3C1377.6 1523.29 1373.48 1507.89 1369.14 1493.06C1346.58 1421.12 1311.02 1341.77 1350.05 1269.82C1414.23 1151.15 1479.29 1036.94 1542.63 917.521C1545.22 910.844 1546.09 904.167 1546.87 897.771C1549.05 882.434 1547.67 867.267 1542.72 853.181C1532.86 824.997 1508.79 801.071 1470.61 788.476C1360.44 752.138 1232.92 735.818 1154.76 654.596C1144.28 642.31 1134.57 629.953 1125.16 617.667C1078.22 556.238 1036.89 497.732 1002.2 430.974C952.756 333.811 809.617 264.832 704.261 343.581C685.912 353.322 666.675 364.259 646.288 376.053L646.321 376.039Z" stroke="#0E2330" stroke-opacity="0.6" stroke-width="0.53" stroke-miterlimit="10"/>
<path d="M644.891 356.71C592.788 385.724 534.667 404.265 475.84 417.437C454.713 421.865 433.914 426.883 413.51 432.563C386.316 440.125 359.5 448.532 331.089 455.673C302.185 463.601 272.689 466.567 243.193 469.533C146.912 479.176 34.1408 462.111 -37.0012 529.613C-48.7075 540.733 -57.6518 552.934 -64.4915 565.839C-71.3147 578.743 -76.0334 592.379 -79.2888 606.38C-85.5694 639.386 -89.0549 672.013 -98.591 705.398C-126.344 795.884 -188.805 875.982 -184.465 969.434C-179.253 1091.82 -55.2185 1175.62 61.5321 1230.38C78.8614 1239.96 95.6153 1249.69 111.563 1260.16C143.443 1281.12 172.068 1305.04 194.626 1336.55C210.245 1357.69 222.609 1379.02 234.102 1400.53C245.594 1422.03 256.215 1443.72 268.365 1465.61C345.574 1585.03 523.405 1634.72 676.08 1625.08C763.696 1619.89 851.313 1608.01 939.274 1612.89C961.207 1614.01 983.124 1615.77 1005.04 1617.51C1070.82 1622.9 1136.6 1628.04 1202.65 1630.26C1263.37 1631.74 1340.58 1641.38 1381.35 1590.96C1392.2 1577.42 1397.45 1563.48 1398.99 1549.25C1400.52 1535.04 1398.34 1520.55 1394.26 1505.94C1364.01 1428.53 1326.7 1342.5 1377.88 1263.88C1455.09 1145.21 1514.94 1023.57 1578.24 902.044C1585.65 881.169 1587.82 859.662 1578.27 838.154C1563.52 802.548 1520.15 789.938 1482.84 776.598C1376.14 740.26 1254.7 720.974 1176.05 644.685C1159.06 627.507 1144.27 609.275 1129.91 590.79C1087.1 535.264 1048.15 477.517 1015.28 414.654C964.101 316.76 815.766 252.223 706.003 324.477C686.734 334.176 666.577 345.169 644.94 356.71H644.891Z" stroke="#0E2330" stroke-opacity="0.6" stroke-width="0.53" stroke-miterlimit="10"/>
<path d="M644.677 338.745C589.302 365.707 531.182 387.214 469.888 400.807C448.152 405.39 426.729 410.563 405.717 416.411C377.701 424.185 350.227 432.97 321.011 440.308C305.638 443.583 290.907 446.549 275.287 449.516C181.604 463.615 88.7756 451.737 1.1757 482.156C-51.5191 500.515 -80.308 541.815 -93.9708 586.981C-98.5251 602.036 -101.402 617.513 -103.26 632.695C-118.534 720.229 -161.035 800.341 -197.47 883.404C-267.74 1046.57 -95.1054 1178.59 58.6713 1245.63C75.0799 1254.46 91.3898 1263.38 107.009 1272.77C147.784 1296.5 174.666 1326.92 197.223 1362.52C207.844 1379.02 216.789 1396.49 225.404 1414.12C234.019 1431.75 242.306 1449.54 251.595 1466.66C319.515 1598.37 510.367 1652.51 667.382 1643.6C772.345 1637.67 877.307 1620.61 983.041 1629.38C1003.54 1630.73 1024.05 1632.13 1044.57 1633.5C1085.6 1636.22 1126.71 1638.78 1167.91 1640.62C1246.84 1644.33 1352.68 1663.62 1400.39 1597.61C1411.88 1581.67 1416.82 1565.44 1417.57 1549.01C1418.31 1532.59 1414.88 1515.98 1409.61 1499.24C1382.17 1430.72 1349.21 1353.59 1395.2 1284.61C1475.87 1164.46 1531.38 1040.61 1596.88 917.507C1604.76 902.649 1611.84 886.511 1614.44 870.205C1617.04 853.884 1615.1 837.381 1605.12 821.806C1583.43 787.689 1538.32 775.825 1499.29 762.471C1397.79 728.354 1283.28 710.557 1203.47 644.812C1185.32 628.295 1170.1 610.386 1155.81 591.957C1113.27 536.6 1074.65 478.951 1042.12 416.102C988.336 312.261 831.32 235.875 708.338 306.287C688.033 315.804 666.873 326.74 644.66 338.717L644.677 338.745Z" stroke="#0E2330" stroke-opacity="0.6" stroke-width="0.53" stroke-miterlimit="10"/>
<path d="M644.463 320.935C587.576 347.91 526.858 370.163 463.953 384.178C441.592 388.929 419.561 394.243 397.94 400.245C369.119 408.244 340.971 417.381 311.097 425.098C232.786 445.059 151.253 443.583 70.575 448.771C-24.1277 455.574 -92.9185 514.389 -115.723 588.316C-120.293 603.104 -123.039 618.483 -124.322 634.157C-134.992 723.195 -187.917 801.802 -223.48 885.611C-289.41 1041.36 -133.266 1182.29 20.7082 1242.75C37.1825 1250.61 53.6732 1258.06 69.72 1265.35C133.907 1295.01 178.151 1345.45 205.049 1402.56C212.645 1418.32 219.748 1434.83 227.278 1451.27C234.825 1467.73 242.816 1484.14 252.171 1499.71C331.698 1622.1 519.064 1673.28 675.209 1661.4C768.02 1654.72 859.977 1637.67 953.315 1641.47C976.498 1642.28 999.68 1643.66 1022.88 1645.02C1092.49 1649.24 1162.19 1653.34 1232.13 1654.74C1298.06 1656.21 1384.8 1660.67 1420.37 1604.3C1429.26 1590.02 1433.44 1575.55 1434.42 1560.97C1435.41 1546.4 1433.22 1531.71 1429.38 1516.96C1405.64 1448.55 1363.99 1372.14 1412.57 1304.66C1488.91 1199.34 1536.62 1092.53 1588.66 981.285C1599.07 957.556 1611.22 935.304 1624.22 912.306C1630.29 900.442 1634.63 888.577 1638.64 876.896C1644.17 858.172 1645.04 838.885 1637.23 819.599C1621.61 781.026 1574.77 763.23 1533.14 750.62C1422.11 716.504 1296.32 702.404 1212.37 627.536C1198.33 613.535 1186.41 598.536 1175.11 583.199C1141.44 537.106 1111.22 489.087 1085.52 437.637C1027.4 321.188 857.38 217.361 711.413 288.997C690.006 298.288 667.744 309.028 644.48 320.92L644.463 320.935Z" stroke="#0E2330" stroke-opacity="0.6" stroke-width="0.53" stroke-miterlimit="10"/>
<path d="M644.496 303.49C584.978 330.1 524.26 353.842 458.017 367.562C435.049 372.454 412.376 377.908 390.147 384.079C360.52 392.289 331.632 401.735 301.314 410.071C277.885 416.889 254.473 420.6 230.172 423.566C124.339 436.175 5.50019 421.345 -76.0493 491.055C-97.7355 509.23 -112.056 531.286 -121.592 555.029C-131.128 578.757 -135.913 604.159 -138.905 628.984C-145.449 660.148 -154.13 689.823 -167.135 719.484C-197.502 787.717 -240.003 848.529 -259.092 921.963C-279.052 1002.06 -234.808 1075.5 -178.414 1139.27C-122.036 1202.32 -41.3581 1229.01 34.9794 1263.33C50.4508 1270.81 65.5607 1278.65 79.9798 1287.15C123.254 1312.65 160.329 1343.99 182.443 1388.48C195.744 1415.17 207.023 1444.85 220.274 1473.59C226.9 1487.96 234.019 1502.12 242.141 1515.57C262.249 1550.91 291.745 1582.81 332.504 1602.82C438.337 1653.26 549.366 1695.53 671.69 1681.44C764.502 1670.31 853.861 1653.26 946.755 1654.52C969.395 1654.81 992.035 1655.86 1014.69 1656.98C1082.68 1660.49 1150.74 1664.39 1219.06 1666.61C1288.46 1668.1 1368.26 1673.29 1422.92 1628.79C1443.3 1611.72 1450.45 1590.21 1450.67 1567.6C1450.88 1544.98 1444.16 1521.23 1436.81 1499.73C1421.17 1453.75 1409.89 1406.28 1416.85 1357.33C1422.92 1309.11 1462.82 1277.98 1494.06 1238.66C1516.62 1209.73 1529.62 1181.54 1540.9 1150.39C1572.12 1065.84 1610.3 987.231 1649.18 907.175C1654.76 893.736 1659.39 880.017 1662.01 865.833C1664.64 851.649 1665.23 837.03 1663.21 821.82C1658.01 780.281 1610.3 759.518 1569.52 743.943C1449.81 700.183 1299.74 696.472 1217.1 601.881C1205.43 587.515 1195 572.544 1185.11 557.292C1165.28 526.802 1147.36 495.244 1131.46 462.111C1063.8 319.712 853.861 191.398 680.618 287.099C668.912 292.342 656.893 297.853 644.48 303.476L644.496 303.49Z" stroke="#0E2330" stroke-opacity="0.6" stroke-width="0.53" stroke-miterlimit="10"/>
<path d="M644.989 286.677C572.844 319.726 495.635 342.709 416.963 358.959C389.818 365.482 363.232 373.016 337.304 381.493C244.936 416.875 145.17 410.943 44.5484 425.773C-23.9795 436.161 -89.9098 463.601 -121.132 518.48C-129.221 532.818 -135.683 547.424 -140.862 562.24C-146.041 577.056 -149.937 592.084 -152.913 607.265C-167.119 696.486 -213.96 776.584 -258.204 858.172C-344.949 1016.89 -200.084 1197.86 -24.6866 1254.68C-8.95213 1261.05 6.88095 1267.24 22.4674 1273.7C38.0375 1280.15 53.3609 1286.87 67.9609 1294.28C149.642 1335.69 177.116 1409.03 207.088 1479.54C213.089 1493.64 219.189 1507.63 225.832 1521.23C242.306 1556.84 269.204 1589.47 309.107 1610.23C421.879 1668.82 542.46 1714.8 676.047 1698.5C765.39 1687.38 851.28 1670.31 940.721 1668.15C962.868 1667.82 985.014 1668.39 1007.18 1669.1C1073.68 1671.41 1140.25 1674.3 1206.94 1676.24C1287.62 1679.21 1388.24 1691.82 1441.17 1627.3C1456.55 1608.94 1463.61 1589.93 1465.47 1570.51C1467.32 1551.08 1463.99 1531.24 1458.71 1511.23C1440.29 1449.29 1406.46 1377.36 1459.38 1323.96C1555.68 1227.54 1590.37 1117.03 1626.81 999.109C1639.81 956.094 1665.84 919.756 1683.08 879.145C1693.16 852.816 1695.33 825.925 1679.73 800.341C1620.74 703.177 1472.4 711.345 1367.44 669.806C1318 650.519 1269.42 627.536 1240.63 587.332C1230.39 573.317 1221.18 558.838 1212.15 544.219C1194.13 514.966 1176.87 485.136 1159.24 454.717C1081.16 321.961 891.2 191.426 710.377 260.348C689.282 267.953 667.563 276.922 644.973 286.691L644.989 286.677Z" stroke="#0E2330" stroke-opacity="0.6" stroke-width="0.53" stroke-miterlimit="10"/>
<path d="M645.861 270.399C571.102 303.405 491.295 324.913 410.091 342.569C382.223 349.26 354.93 356.991 328.311 365.679C240.58 398.333 146.025 402.044 51.4867 410.198C-49.1348 418.604 -116.61 476.126 -151.187 548.478C-159.835 566.57 -166.411 585.575 -170.966 604.988C-184.481 694.996 -230.451 774.363 -279.035 855.206C-344.966 964.978 -285.102 1085.87 -199.229 1174.87C-149.789 1226.78 -81.2449 1254.96 -10.1193 1275.74C11.271 1281.55 30.524 1289.28 47.919 1298.6C134.861 1345.17 175.225 1431.49 204.145 1516.79C213.254 1543.12 228.66 1567.82 249.606 1588.93C404.534 1713.34 634.401 1744.49 839.13 1691.09C876.435 1681.44 916.339 1680.7 956.374 1680.62C977.435 1680.54 998.513 1681.16 1019.61 1681.88C1103.94 1684.78 1188.3 1688.85 1272.87 1687.38C1333.59 1685.89 1403.86 1685.16 1447.23 1643.62C1463.94 1627.68 1472.98 1610.39 1477.01 1592.27C1481.04 1574.15 1480.03 1555.21 1476.61 1535.98C1460.24 1467.85 1427.27 1393.67 1482.8 1329.89C1533.98 1272.04 1600.78 1226.05 1612.04 1151.88C1625.05 1066.58 1650.2 986.486 1689.04 909.677C1695.47 895.353 1701.42 880.762 1705.54 865.692C1709.67 850.623 1711.96 835.062 1711.81 818.868C1710.08 758.788 1637.21 732.093 1579.95 712.061C1462.84 672.013 1312.77 657.182 1249.77 552.105C1239.63 535.995 1230.06 519.562 1221.16 502.75C1212.25 485.924 1204.01 468.704 1196.53 451.006C1091.57 325.658 907.658 183.259 714.602 245.054C692.324 252.364 669.487 260.953 645.844 270.413L645.861 270.399Z" stroke="#0E2330" stroke-opacity="0.6" stroke-width="0.53" stroke-miterlimit="10"/>
<path d="M647.176 254.683C578.04 281.898 506.026 304.136 431.99 319.627C412.672 323.76 393.616 328.343 374.824 333.375C356.031 338.422 337.518 343.918 319.317 349.864C292.008 358.776 264.617 367.886 234.562 374.225C177.263 386.469 119.998 388.704 60.1511 397.602C-16.1865 408.722 -90.7813 429.498 -135.025 488.088C-157.862 518.494 -171.657 550.306 -180.453 582.946C-184.859 599.267 -188.065 615.784 -192.044 632.371C-209.62 712.09 -257.333 781.054 -298.963 852.999C-362.295 961.281 -308.499 1074.76 -231.306 1169.69C-193.129 1216.42 -142.818 1249.06 -83.0209 1268.33C-67.9277 1273.28 -52.6207 1278.31 -37.3959 1283.64C38.7772 1310.31 113.224 1344.61 144.315 1414.44C162.959 1457.84 176.622 1508.64 200.676 1552.43C208.699 1567.05 217.874 1580.89 228.758 1593.64C295.247 1662.9 399.338 1691.83 496.507 1719.27C571.973 1740.78 649.182 1740.78 728.988 1725.95C797.516 1714.09 859.977 1698.51 927.749 1695.31C954.302 1693.67 980.888 1693.55 1007.46 1693.89C1087.25 1695.16 1167.05 1698.14 1246.86 1697.77C1320.6 1697.77 1403.88 1697.02 1460.25 1649.55C1478.9 1634.34 1487.58 1615.43 1490.72 1595.22C1493.86 1575 1491.48 1553.5 1488.01 1533.1C1475.86 1467.83 1455.04 1392.18 1510.56 1335.81C1565.22 1280.18 1641.55 1234.2 1645.89 1157.8C1651.11 1056.93 1676.26 959.032 1724.83 867.801C1733.07 848.149 1734.69 829.551 1731.26 812.317C1720.93 760.587 1664.98 720.96 1605.12 700.928C1492.35 663.845 1352.68 646.794 1286.83 550.404C1275.39 531.919 1264.63 512.913 1254.67 493.262C1193.08 373.115 1058.62 293.748 922.422 238.124C858.235 212.16 785.366 211.429 719.272 230.519C695.777 237.294 671.772 245.433 647.192 254.669L647.176 254.683Z" stroke="#0E2330" stroke-opacity="0.6" stroke-width="0.53" stroke-miterlimit="10"/>
<path d="M648.574 239.178C576.297 264.846 502.574 287.83 425.874 303.096C406.062 307.313 386.513 312.008 367.261 317.167C347.991 322.326 329.018 327.963 310.357 334.05C282.357 343.187 254.522 352.746 224.237 359.76C113.948 384.993 -10.1031 375.35 -104.658 442.107C-141.519 468.436 -164.735 501.626 -180.124 537.879C-187.819 555.999 -193.573 574.892 -198.094 594.066C-213.944 687.602 -270.338 768.445 -318.906 852.985C-381.367 962.757 -324.118 1077.72 -252.976 1175.61C-214.815 1227.52 -156.678 1261.64 -92.1952 1284.95C-73.8794 1291.96 -55.0869 1298.37 -36.541 1304.61C-17.9951 1310.86 0.320853 1316.9 17.683 1323.21C115.707 1358.82 142.605 1450.04 169.487 1530.88C174.699 1546.27 181.571 1561.1 190.104 1574.99C198.637 1588.91 208.814 1601.87 220.603 1613.72C283.113 1673.28 375.07 1698.5 460.072 1726.68C545.091 1754.12 633.562 1760.05 725.519 1743.75C817.476 1727.43 901.624 1703.7 992.693 1705.17C1014.95 1704.81 1037.18 1705.03 1059.36 1705.52C1170.31 1708.03 1280.55 1717.4 1392.6 1693.29C1429.03 1685.87 1462 1671.79 1483.68 1643.6C1492.79 1630.99 1498.43 1617.84 1501.57 1604.3C1504.71 1590.76 1505.37 1576.86 1504.5 1562.76C1498.43 1490.82 1469.81 1407.75 1533.12 1347.67C1593.84 1289.83 1684.93 1242.35 1682.33 1158.55C1679.73 1072.52 1684.93 984.251 1725.83 904.167C1732.21 891.726 1738.02 878.47 1742.29 864.891C1755.15 824.139 1754.33 780.478 1717.89 747.654C1686.67 717.994 1645.89 700.928 1604.25 686.098C1494.95 645.304 1365.7 615.643 1306.94 518.902C1293.55 499.447 1279.96 479.795 1265.93 459.89C1188.72 350.862 1062.08 280.408 929.36 228.495C865.173 203.276 792.304 199.565 724.401 216.897C699.509 222.759 674.337 230.378 648.574 239.178V239.178Z" stroke="#0E2330" stroke-opacity="0.6" stroke-width="0.53" stroke-miterlimit="10"/>
<path d="M650.119 223.954C574.571 248.512 499.105 270.764 419.742 286.537C399.437 290.852 379.411 295.646 359.665 300.931C339.919 306.217 320.485 311.98 301.347 318.221C272.657 327.57 244.328 337.564 214.914 346.406C158.175 358.284 101.797 367.928 43.6768 374.591C-90.0577 389.421 -178.611 475.845 -211.445 579.362C-218.021 600.068 -222.608 621.435 -226.653 642.984C-247.797 720.96 -305.046 786.227 -340.609 859.648C-376.171 931.592 -366.635 1011.69 -330.201 1082.14C-292.896 1152.6 -253.864 1226.76 -177.033 1271.21C-161.002 1280.73 -143.492 1288.52 -124.618 1294.27C-30.9343 1322.45 79.2397 1349.15 113.931 1438.89C132.148 1485.25 147.324 1537.91 173.794 1582.78C182.623 1597.75 192.686 1611.85 204.556 1624.6C295.231 1704.4 424.493 1741.48 554.611 1762.26C628.351 1774.87 697.75 1767.45 769.747 1752.62C838.275 1737.79 903.333 1722.21 972.437 1719.45C997.724 1718.74 1023.03 1718.4 1048.35 1718.25C1124.32 1717.77 1200.45 1718.88 1276.34 1716.28C1342.27 1714.06 1409.93 1709.6 1467.19 1674.01C1492.79 1658.07 1506.67 1636.36 1513.39 1612.54C1520.12 1588.71 1519.69 1562.75 1516.65 1538.27C1507.97 1475.23 1502.77 1402.55 1560.89 1353.59C1627.69 1297.96 1729.19 1250.49 1716.16 1160.75C1704.01 1074.72 1700.55 988.679 1743.64 909.312C1751.96 890.967 1759.31 872.608 1763.2 854.25C1771.01 817.518 1765.03 780.773 1733.51 744.674C1664.98 666.052 1550.47 653.443 1454.19 608.952C1422.96 594.867 1395.2 576.311 1371.8 554.832C1358 538.877 1346.33 521.938 1335.35 504.381C1245.13 359.76 1073.37 264.818 897.283 208.449C830.481 186.942 756.758 192.874 690.203 212.399C677.017 215.927 663.683 219.807 650.136 223.94L650.119 223.954Z" stroke="#0E2330" stroke-opacity="0.6" stroke-width="0.53" stroke-miterlimit="10"/>
<path d="M651.878 209.068C572.828 232.206 494.747 254.458 413.593 270.005C392.811 274.405 372.292 279.325 352.069 284.737C331.862 290.149 311.952 296.039 292.354 302.421C262.973 311.98 234.102 322.354 204.425 331.857C94.8427 359.789 -27.4653 358.299 -121.165 425.056C-181.456 468.816 -209.653 525.734 -226.801 586.559C-232.539 606.829 -237.636 627.522 -244.92 648.157C-257.349 685.381 -275.566 719.498 -298.124 754.345C-343.239 823.324 -389.21 893.779 -378.802 974.621C-363.183 1084.39 -306.805 1191.19 -218.432 1270.64C-200.1 1284.09 -179.285 1295.03 -157.599 1303.92C-96.8809 1327.65 -33.5486 1336.55 24.5719 1370.68C110.445 1421.12 113.06 1509.37 147.751 1582.06C154.262 1595.78 162.499 1608.63 172.216 1620.45C181.933 1632.29 193.13 1643.11 205.526 1652.88C385.445 1771.19 629.206 1817.91 849.537 1752.64C898.122 1737.81 949.304 1732.63 1001.03 1731.39C1026.48 1730.46 1051.98 1729.93 1077.48 1729.53C1154.02 1728.37 1230.8 1728.55 1307.56 1723.73C1385.64 1719.27 1481.05 1705.19 1515.76 1637.7C1522.7 1623.98 1526.92 1609.94 1529.31 1595.68C1531.68 1581.43 1532.2 1566.96 1531.71 1552.41C1520.1 1478.25 1527.91 1397.41 1605.12 1346.97C1676.24 1300.24 1768.2 1252.04 1749.98 1166C1731.77 1079.22 1715.29 993.191 1753.11 911.42C1758.7 897.672 1764.42 883.77 1769.07 869.516C1773.73 855.262 1777.33 840.657 1779.48 825.573C1790.76 749.186 1717.02 698.004 1645.02 666.109C1555.68 626.805 1448.98 604.552 1392.56 528.629C1382.73 512.393 1372.56 496.874 1361.39 482.17C1283.15 379.3 1155.35 317.237 1030.87 247.795C928.505 189.95 808.795 165.476 693.787 198.286C679.993 201.561 666.051 205.188 651.911 209.082L651.878 209.068Z" stroke="#0E2330" stroke-opacity="0.6" stroke-width="0.53" stroke-miterlimit="10"/>
<path d="M653.802 194.406C581.509 213.664 509.496 232.937 435.953 247.598C416.865 251.323 397.957 255.344 379.263 259.758C360.569 264.172 342.122 268.993 323.921 274.194C296.612 282.01 269.862 290.726 243.736 300.27C159.918 332.321 69.6871 341.964 -19.6556 364.948C-130.685 393.132 -188.164 460.803 -223.529 541.168C-232.375 561.256 -239.839 582.145 -246.416 603.4C-271.226 684.608 -321.537 755.807 -363.166 831.463C-396.131 889.309 -407.41 953.1 -389.193 1016.88C-360.569 1114.79 -317.196 1210.46 -238.655 1283.64C-225.469 1293.75 -210.738 1302.56 -195.003 1310.41C-147.816 1333.94 -91.6526 1348.77 -41.3418 1363.98C57.5534 1393.64 87.9043 1481.9 114.803 1560.52C125.21 1589.45 140.829 1617.64 162.187 1641.58C172.857 1653.56 184.975 1664.48 198.604 1673.97C355.094 1759.28 538.136 1821.58 732.458 1791.92C823.543 1777.83 905.076 1748.91 994.83 1744.66C1016.27 1743.17 1037.74 1742 1059.23 1741.09C1123.68 1738.33 1188.31 1737.77 1252.94 1737.04C1353.43 1736.42 1489.45 1714.69 1532 1633.2C1540.5 1616.91 1545.29 1598.21 1545.29 1576.83C1540.08 1502.67 1540.95 1419.6 1615.56 1366.94C1691.03 1314.29 1807.27 1266.81 1782.11 1168.92C1759.55 1085.11 1731.8 1003.52 1765.08 922.048C1771.19 907.681 1777.82 892.738 1783.28 877.486C1799.62 831.73 1804.01 783.064 1770.83 740.232C1706.65 655.678 1598.21 635.661 1503.66 583.003C1458.54 557.784 1425.58 525.888 1399.57 488.074C1384.25 467.93 1367.57 449.445 1349.77 432.296C1260.79 346.533 1143.81 294.001 1027.42 232.206C937.203 184.735 833.967 160.261 731.307 178.718C705.708 182.528 679.993 187.926 653.835 194.406H653.802Z" stroke="#0E2330" stroke-opacity="0.6" stroke-width="0.53" stroke-miterlimit="10"/>
<path d="M655.775 179.899C581.509 197.344 506.914 216.63 430.494 231.011C410.946 234.75 391.594 238.855 372.489 243.353C353.368 247.865 334.493 252.785 315.865 258.127C287.931 266.126 260.572 275.024 233.838 284.779C151.237 316.029 63.6202 330.859 -23.1248 353.856C-137.343 384.136 -209.998 462.322 -247.106 555.366C-254.521 573.978 -260.523 593.18 -265.192 612.705C-285.119 689.837 -339.77 754.359 -379.674 825.573C-461.207 972.428 -374.462 1126.69 -296.48 1257.18C-286.73 1271.38 -275.024 1283.89 -261.608 1295.04C-207.992 1339.63 -127.232 1362.54 -56.0897 1384.8C10.7118 1405.56 50.615 1457.49 71.4299 1513.85C89.9429 1567.26 113.454 1623.29 155.479 1664.46C165.985 1674.75 177.658 1684.12 190.68 1692.28C302.169 1747.48 420.153 1793.47 551.142 1810.53C689.069 1828.33 817.46 1790.5 947.101 1764.83C972.519 1761.25 997.987 1758.94 1023.5 1757.07C1125.59 1749.62 1228.33 1748.96 1331.86 1740.06C1412.54 1733.39 1503.63 1712.62 1539.19 1645.13C1548.08 1628.07 1553.23 1610.65 1556.17 1592.95C1559.12 1575.26 1559.84 1557.29 1560.18 1539.19C1555.68 1473.07 1583.43 1410.03 1650.23 1368.49C1703.14 1335.12 1754.33 1309.9 1792.5 1262.43C1842.81 1200.87 1800.31 1137.08 1780.35 1076.27C1763.88 1027.32 1762.13 976.885 1777.08 928.851C1783.85 911.631 1791.25 893.624 1797.01 875.251C1814.25 820.119 1814.42 761.43 1768.22 713.594C1705.76 649.071 1620.76 624.598 1540.08 577.872C1503.64 557.109 1475.02 534.112 1449.39 506.545C1433.49 486.641 1416.91 467.762 1399.4 449.909C1276.8 324.969 1108.19 250.41 938.929 185.522C875.597 161.048 805.343 157.337 736.436 165.532C709.9 169.075 683.051 173.925 655.791 179.927L655.775 179.899Z" stroke="#0E2330" stroke-opacity="0.6" stroke-width="0.53" stroke-miterlimit="10"/>
<path d="M657.846 165.589C580.638 182.513 503.429 199.579 424.987 214.283C405.027 218.148 385.231 222.337 365.682 226.934C346.133 231.545 326.831 236.577 307.792 242.018C279.233 250.185 251.25 259.28 223.924 269.246C196.319 278.918 169.437 289.306 140.813 297.459C28.0411 329.355 -92.5406 347.151 -176.688 425.773C-221.787 468.043 -248.685 517.735 -267.773 571.883C-274.07 589.876 -279.973 607.757 -286.105 625.568C-307.677 680.911 -338.899 730.603 -374.462 782.516C-484.636 940.491 -404.829 1111.82 -322.145 1257.63C-314.434 1271.66 -305.194 1284.98 -294.375 1297.29C-272.739 1321.9 -244.772 1342.48 -211.379 1356.58C-134.17 1389.22 -42.2298 1397.38 11.5666 1465.61C46.258 1509.37 58.4083 1555.35 80.966 1601.33C101.781 1643.05 134.795 1680.6 177.822 1706.61C192.159 1715.28 207.614 1722.74 224.122 1728.9C327.324 1771.92 432.286 1811.22 548.544 1825.32C683.873 1841.64 813.119 1809.74 940.392 1781.7C960.089 1778.09 979.835 1775.33 999.614 1773.03C1098.54 1761.5 1198.42 1760.67 1298.9 1752.64C1383.92 1745.97 1476.73 1735.58 1533.12 1673.29C1547.21 1657.72 1556.49 1641.11 1562.63 1623.85C1568.78 1606.59 1571.79 1588.64 1573.35 1570.38C1571.3 1502.71 1589.52 1434.47 1657.17 1388.48C1721.36 1344.72 1797.7 1314.31 1831.53 1249.05C1861.03 1193.42 1828.07 1136.31 1804.64 1083.65C1781.22 1028.02 1775.14 967.199 1797.8 910.717C1803.44 896.534 1808.55 882.224 1812.45 867.815C1824.15 824.617 1825.02 780.674 1801.17 738.025C1771.67 684.622 1718.76 651.25 1660.64 618.609C1586.9 577.07 1516.65 541.478 1464.55 483.745C1450.82 469.013 1436.41 454.618 1421.22 440.617C1291.1 320.471 1125.41 239.628 951.046 176.581C885.116 152.853 813.119 146.176 742.01 153.078C714.125 155.678 686.109 159.952 657.846 165.589V165.589Z" stroke="#0E2330" stroke-opacity="0.6" stroke-width="0.53" stroke-miterlimit="10"/>
<path d="M659.935 151.278C578.895 166.193 499.959 183.99 419.561 197.709C399.108 201.533 378.885 205.806 358.908 210.515C338.932 215.225 319.219 220.355 299.752 225.922C270.569 234.258 241.977 243.55 214.043 253.727C146.025 279.663 76.6255 298.949 5.49987 319.712C-65.6257 341.219 -133.299 368.659 -185.352 418.351C-229.152 459.51 -256.922 507.164 -278.394 557.179C-285.546 573.851 -292.008 590.79 -298.124 607.827C-306.805 634.916 -318.939 661.624 -334.558 686.843C-402.215 792.904 -469.016 899.711 -438.649 1025.79C-416.963 1119.99 -370.993 1200.83 -332.059 1286.07C-319.86 1306.86 -303.352 1325.24 -283.82 1341.09C-264.287 1356.95 -241.73 1370.3 -217.446 1381.06C-147.175 1411.46 -66.5137 1424.07 -16.1865 1482.66C14.1808 1517.52 28.9289 1555.35 48.0009 1593.91C72.0712 1642.86 109.311 1688.47 159.572 1719.02C176.326 1729.2 194.527 1737.7 214.158 1744.22C322.984 1787.49 433.158 1828.29 554.594 1840.9C689.052 1854.25 818.298 1825.32 945.424 1797.71C975.544 1792.54 1005.8 1787.79 1036.21 1783.84C1066.63 1779.89 1097.21 1776.74 1128.01 1774.88C1275.26 1764.49 1495.57 1771.72 1564.62 1646.48C1574.49 1628.59 1581.26 1608 1584.3 1584.27C1588.65 1544.22 1591.24 1504.17 1612.06 1467.09C1649.36 1399.6 1729.17 1369.92 1795.1 1323.2C1858.43 1277.96 1887.06 1206.75 1854.09 1141.48C1818.53 1071.03 1782.95 993.894 1811.97 916.79C1820.55 897.954 1826.7 878.92 1830.14 859.943C1847.35 765.057 1796.99 671.619 1693.61 617.85C1614.67 577.056 1538.33 537.007 1486.28 472.485C1472.83 456.08 1458.56 440.786 1443.57 426.462C1338.65 326.122 1198.7 272.423 1062.08 206.228C1008.3 180.264 955.371 160.992 894.652 149.114C829.594 137.249 767.133 135.759 703.652 144.447C689.135 146.358 674.584 148.65 659.935 151.264V151.278Z" stroke="#0E2330" stroke-opacity="0.6" stroke-width="0.53" stroke-miterlimit="10"/>
<path d="M662.023 137.01C578.911 150.618 497.362 166.924 414.086 181.037C393.189 184.945 372.538 189.303 352.134 194.097C331.731 198.904 311.573 204.147 291.712 209.827C261.904 218.345 232.688 227.82 204.178 238.222C125.226 269.288 44.5648 294.507 -37.8561 319.726C-159.309 357.272 -231.947 438.565 -282.324 531.638C-292.402 550.249 -301.577 569.339 -310.077 588.639C-327.587 630.488 -343.206 671.282 -369.233 709.855C-427.354 799.596 -471.597 894.538 -459.447 997.619C-449.911 1076.97 -417.801 1149.66 -385.148 1222.87C-375.53 1246.67 -365.452 1270.02 -354.189 1292.69C-329.33 1338.06 -289.426 1374.39 -237.373 1399.61C-185.319 1425.58 -131.539 1439.66 -82.1 1470.81C-15.2985 1513.83 4.64495 1579.09 43.6769 1638.43C71.6602 1680.15 110.363 1713.52 156.186 1738.11C171.46 1746.3 187.523 1753.52 204.244 1759.76C314.336 1800.86 424.51 1841.65 546.817 1855.01C685.616 1869.84 819.203 1842.4 951.079 1814.17C972.174 1809.59 993.317 1805.71 1014.48 1802.32C1120.31 1785.43 1227.05 1781.21 1336.22 1768.22C1407.35 1760.07 1477.62 1745.97 1532.27 1703.7C1568.27 1675.15 1584.96 1639.72 1594.51 1601.81C1599.28 1582.85 1602.27 1563.27 1605.53 1543.63C1610.33 1491.57 1641.57 1446.34 1689.28 1412.95C1751.74 1369.19 1819.4 1339.53 1865.39 1280.2C1925.25 1200.84 1861.92 1120.73 1833.29 1045.84C1817.67 1005.79 1812.48 964.247 1824.51 923.552C1831.85 905.91 1837.75 888.015 1841.46 870.022C1860.04 780.098 1823.89 688.108 1733.54 627.536C1665.89 582.3 1598.21 543.727 1542.54 490.942C1526.96 475.887 1512.46 460.803 1497.21 446.142C1481.97 431.48 1465.94 417.268 1449.02 403.549C1338 313.063 1207.01 258.183 1073.4 195.882C959.76 143.224 833.983 115.039 707.368 130.952C692.324 132.625 677.247 134.677 662.055 137.039L662.023 137.01Z" stroke="#0E2330" stroke-opacity="0.6" stroke-width="0.53" stroke-miterlimit="10"/>
<path d="M664.045 122.686C591.916 132.821 520.791 145.431 448.826 157.337C424.542 161.259 400.505 165.673 376.78 170.677C329.347 180.672 283.162 193.014 238.458 207.507C211.642 216.195 185.353 225.669 159.605 235.832C99.183 259.645 38.4649 281.153 -24.8675 300.439C-162.038 341.697 -242.963 432.492 -301.248 535.869C-312.905 556.547 -323.658 577.717 -333.769 599.112C-349.306 631.978 -364.054 663.859 -382.255 695.755C-417.818 755.836 -452.526 812.936 -468.129 881.914C-501.965 1021.35 -438.633 1145.95 -388.98 1270.64C-379.707 1291.98 -369.25 1312.75 -356.689 1331.49C-308.515 1407.75 -213.089 1437.43 -128.087 1482.66C-91.6527 1501.95 -64.7545 1526.42 -43.0683 1558.32C11.583 1637.68 61.8939 1720.75 160.082 1761.22C185.353 1772.46 211.642 1782.01 238.508 1791.37C462.67 1887.62 721.162 1892.82 958.461 1830.45C979.49 1825.28 1000.58 1820.84 1021.74 1816.94C1127.53 1797.51 1235.01 1791.95 1344.88 1777.12C1422.09 1766.73 1499.3 1749.68 1553.94 1698.5C1582.13 1671.8 1597.1 1640.83 1606.85 1607.93C1611.73 1591.46 1615.31 1574.53 1618.58 1557.39C1628.53 1453.76 1742.18 1403.32 1828.05 1341.77C1885.3 1300.23 1923.47 1241.64 1906.98 1175.63C1893.11 1120 1861.01 1076.99 1844.52 1022.84C1834.12 987.976 1833.24 953.128 1840.48 918.294C1845.39 901.566 1850 884.698 1853.42 867.773C1863.66 817.012 1863.18 765.844 1835.86 718.008C1790.74 637.91 1704 591.929 1625.06 534.815C1603.38 518.494 1583.42 502.188 1564.48 484.181C1545.8 463.432 1527.1 443.851 1507.52 425.464C1370.45 296.742 1189.69 226.653 1008.3 156.564C926.746 125.413 837.403 109.838 748.455 115.067C720.406 116.276 692.373 118.961 664.045 122.686V122.686Z" stroke="#0E2330" stroke-opacity="0.6" stroke-width="0.53" stroke-miterlimit="10"/>
<path d="M665.919 108.221C591.045 116.501 518.176 129.11 444.206 140.595C419.396 144.517 394.866 149.029 370.647 154.132C322.227 164.338 275.106 176.905 229.481 191.693C202.106 200.563 175.274 210.22 149.034 220.622C27.2026 272.255 -108.998 301.929 -208.765 388.704C-266.59 439.141 -303.616 499.798 -335.035 562.563C-342.894 578.251 -350.391 594.08 -357.79 609.922C-364.054 625.301 -371.864 639.386 -380.529 654.23C-427.37 735.818 -475.955 814.426 -489.831 906.402C-507.177 1019.87 -468.145 1127.42 -428.669 1232.04C-423.046 1246.88 -417.193 1261.57 -410.896 1276.08C-401.442 1297.84 -390.903 1319.22 -378.687 1339.19C-334.542 1417.41 -245.199 1455.24 -160.181 1501.96C-90.7813 1540.54 -55.2184 1595.41 -10.9746 1653.26C31.5265 1707.41 83.5801 1748.93 149.296 1776.82C175.257 1787.96 202.09 1797.64 229.481 1806.64C454.844 1898.77 710.738 1908.4 949.649 1849.92C978.997 1844.37 1007.93 1837.97 1037.17 1831.1C1072.48 1823.13 1107.17 1817.19 1144.48 1811.99C1276.34 1792.71 1406.46 1798.64 1524.42 1732.64C1579.08 1702.24 1604.23 1658.66 1620.18 1611C1625.49 1595.12 1629.78 1578.78 1633.79 1562.32C1648.48 1458.22 1760.38 1408.52 1848.86 1347.71C1967.7 1266.13 1924.33 1140.79 1871.42 1041.41C1851.46 1004.32 1847.14 962.785 1856.2 922.048C1862.59 902.339 1867.28 882.547 1869.81 862.825C1882.54 764.214 1842.06 667.486 1747.35 600.11C1692.7 562.282 1642.39 525.199 1594.88 482.606C1576.97 464.318 1559.79 446.226 1542.3 428.584C1524.13 411.8 1504.33 395.367 1483.63 379.511C1442.23 347.798 1397.66 318.503 1350.34 291.921C1326.68 278.636 1302.32 266.027 1277.29 254.093C1113.24 181.052 944.092 95.0216 753.207 102.008C724.253 102.781 695.234 105.002 665.886 108.235L665.919 108.221Z" stroke="#0E2330" stroke-opacity="0.6" stroke-width="0.53" stroke-miterlimit="10"/>
<path d="M667.678 93.5597C591.045 101.671 514.707 112.79 439.57 123.797C414.25 127.775 389.226 132.357 364.531 137.559C315.141 147.961 267.05 160.781 220.504 175.85C192.587 184.889 165.212 194.743 138.445 205.356C2.91846 261.107 -146.288 301.156 -247.781 407.217C-295.198 456.657 -327.965 511.058 -357.478 566.837C-364.86 580.781 -372.028 594.811 -379.18 608.882C-429.096 703.149 -489.815 794.38 -506.289 901.173C-524.506 1016.88 -489.815 1128.13 -450.618 1236.58C-445.143 1251.7 -439.208 1266.67 -432.763 1281.46C-423.112 1303.66 -412.359 1325.46 -400.538 1346.8C-353.614 1435.18 -252.976 1479.67 -164.505 1539C-95.9768 1584.98 -56.9449 1646.54 -0.550749 1702.18C39.3526 1740.75 85.3229 1769.67 138.61 1792.27C165.195 1803.39 192.57 1813.24 220.521 1822.3C451.408 1912.8 711.643 1922.44 955.239 1866.54C985.179 1860.88 1014.67 1854.33 1044.25 1847.22C1136.72 1823.8 1230.4 1814.16 1327.56 1802.29C1462.88 1785.23 1601.68 1735.55 1636.37 1609.46C1641.14 1591.84 1645.76 1574.46 1650.61 1557.32C1663.27 1513.04 1693.62 1475.23 1734.4 1444.81C1804.67 1392.15 1887.94 1353.57 1928.7 1279.41C1955.6 1229.72 1946.92 1174.09 1925.23 1123.66C1897.48 1056.91 1857.58 990.9 1872.37 918.154C1875.88 902.396 1879.13 886.624 1881.55 870.725C1886.4 838.942 1887.94 806.722 1882.73 773.59C1870.58 701.645 1822.89 643.8 1763.02 594.108C1712.71 552.569 1661.53 515.486 1615.95 471.712C1596.87 453.367 1579.04 435.177 1560.69 417.564C1541.44 400.259 1521.14 383.475 1500.01 367.295C1436.64 318.784 1366.04 275.839 1289.53 239.473C1264.03 227.356 1237.87 215.956 1210.62 204.766C1068.18 146.134 919.841 83.8321 757.876 88.7099C727.986 89.0332 697.996 90.7623 667.695 93.5315L667.678 93.5597Z" stroke="#0E2330" stroke-opacity="0.6" stroke-width="0.53" stroke-miterlimit="10"/>
<path d="M669.273 78.7856C591.045 85.3503 512.965 94.9935 434.901 106.984C409.071 111.033 383.554 115.714 358.366 121.013C307.989 131.612 258.961 144.686 211.495 160.05C183.018 169.272 155.101 179.308 127.808 190.132C22.8293 234.427 -82.9878 269.288 -180.157 333.066C-282.8 401.046 -339.671 493.247 -391.248 587.796C-401.557 606.703 -411.685 625.708 -422.043 644.629C-544.499 826.29 -557.504 1045.82 -472.88 1241.17C-467.339 1256.59 -461.289 1271.85 -454.712 1286.92C-444.88 1309.53 -433.914 1331.76 -421.862 1353.55C-393.55 1406.28 -352.775 1452.27 -295.526 1488.61C-194.904 1551.65 -116.824 1618.4 -38.7604 1698.51C7.20988 1745.98 63.604 1782.32 127.89 1807.76C155.084 1818.88 183.002 1828.93 211.478 1838.15C425.332 1915.82 663.026 1939.55 891.282 1894.82C914.662 1891.39 937.811 1887.56 960.73 1883.25C991.262 1877.49 1021.35 1870.82 1050.9 1863.29C1146.19 1837.94 1241.62 1825.33 1342.24 1810.5C1469.76 1791.96 1598.15 1742.27 1642.38 1631.02C1649.53 1612.85 1655.87 1594.54 1662.07 1576.27C1675.34 1526.45 1704.84 1482.69 1754.28 1451.54C1874.86 1375.15 2007.57 1272.79 1948.58 1135.59C1914.74 1057.71 1870.5 979.092 1894.06 895.184C1897.05 876.685 1899.29 858.158 1900.16 839.63C1901.92 802.576 1898.25 765.493 1884.38 728.41C1865.29 678.718 1831.47 637.179 1790.69 598.62C1736.04 548.183 1679.66 504.423 1628.02 454.014C1611.52 437.806 1595.22 421.907 1578.34 406.515C1558.49 388.817 1537.78 371.709 1516.24 355.234C1451.62 305.795 1379.63 262.021 1301.59 224.952C1275.58 212.596 1248.92 200.985 1221.62 190.161C1062.88 126.172 894.587 63.8709 715.803 75.9882C700.348 76.6208 684.827 77.5907 669.208 78.8277L669.273 78.7856Z" stroke="#0E2330" stroke-opacity="0.6" stroke-width="0.53" stroke-miterlimit="10"/>
<path d="M670.703 63.8006C590.19 69.044 510.383 78.6872 430.264 90.1719C403.941 94.2906 377.931 99.0701 352.25 104.468C300.903 115.264 250.921 128.59 202.534 144.236C173.498 153.626 145.054 163.86 117.236 174.88C-15.2988 229.985 -153.226 279.677 -257.317 376.095C-325.992 440.997 -372.982 515.669 -416.93 592.027C-425.726 607.293 -434.391 622.63 -443.121 637.966C-562.667 824.069 -574.817 1046.57 -495.093 1245.74C-488.039 1265.38 -480.147 1284.75 -471.466 1303.84C-462.785 1322.93 -453.315 1341.74 -443.088 1360.24C-430.823 1382.43 -417.275 1403.89 -402.001 1423.55C-383.094 1447.08 -362.279 1469.34 -337.123 1490.1C-274.662 1541.28 -207.006 1579.09 -148.014 1633.24C-68.2073 1707.41 9.00163 1783.06 117.252 1823.17C145.054 1834.34 173.515 1844.58 202.55 1853.97C414.118 1926.19 646.6 1955.12 871.601 1914.89C903.596 1910.75 935.197 1905.8 966.32 1899.92C997.444 1894.05 1028.11 1887.26 1058.24 1879.58C1166.2 1848.33 1273.76 1834.23 1388.27 1812.72C1514.92 1789 1625.1 1725.2 1664.13 1617.67C1670.19 1600.98 1676.28 1584.38 1682.59 1567.93C1698.82 1524.95 1730.04 1488.61 1770.82 1458.2C1848.02 1401.83 1936.5 1352.14 1967.74 1265.37C1998.1 1179.34 1946.05 1099.97 1918.3 1018.38C1909.61 990.942 1906.15 963.502 1906.18 935.079C1908.74 913.501 1911.78 892.008 1913.63 870.57C1919.17 806.259 1913.96 742.481 1877.52 681.656C1822.87 590.425 1730.04 527.392 1654.15 451.062C1635.5 431.972 1616.17 413.346 1595.93 395.311C1515.02 323.184 1419.87 260.685 1313.83 210.319C1287.32 197.737 1260.13 185.901 1232.29 174.88C1070.76 112.79 899.864 51.9785 718.68 61.5374C702.764 62.0013 686.783 62.7744 670.687 63.8006H670.703Z" stroke="#0E2330" stroke-opacity="0.6" stroke-width="0.53" stroke-miterlimit="10"/>
<path d="M671.904 48.5486C609.262 51.9785 547.672 57.1656 486.461 64.9814C466.024 67.4414 445.719 70.2107 425.611 73.3595C345.13 85.9547 267.494 104.51 193.54 128.421C163.962 137.98 134.96 148.397 106.614 159.628C-17.9129 212.919 -145.433 262.611 -248.652 348.641C-329.609 416.017 -384.08 497.802 -434.457 581.175C-444.535 597.847 -454.449 614.589 -464.38 631.289C-566.153 803.293 -596.52 1002.81 -536.525 1189.53C-530.919 1210.04 -524.572 1230.31 -517.371 1250.3C-502.968 1290.29 -485.228 1329.23 -464.38 1366.92C-451.868 1389.52 -438.238 1411.67 -423.128 1432.48C-404.813 1459.68 -382.255 1482.66 -356.245 1504.91C-270.371 1579.08 -180.157 1640.64 -95.1383 1715.55C-36.1464 1768.21 31.51 1809 106.598 1838.49C134.943 1849.78 163.946 1860.2 193.524 1869.77C212.004 1875.74 230.731 1881.39 249.671 1886.72C449.632 1948.43 666.494 1964.75 875.301 1931.73C897.036 1928.95 918.607 1925.8 939.965 1922.23C982.68 1915.09 1024.57 1906.28 1065.51 1895.84C1096.22 1888.03 1126.67 1879.43 1158.18 1870.6C1224.29 1854.22 1289.35 1843.1 1359.62 1830.49C1496.67 1806.76 1622.47 1746.68 1671.9 1633.21C1679.5 1616.15 1686.92 1599.1 1694.46 1582.12C1702.01 1565.14 1710.05 1548.25 1721.25 1531.82C1734.35 1512.32 1750.82 1495.26 1769.91 1478.95C1858.4 1409.24 1972.03 1348.42 1989.39 1238.64C2000.67 1162.99 1963.36 1095.5 1939.08 1024.3C1931.27 998.336 1926.07 972.386 1925.5 945.79C1926.53 925.801 1928.72 905.966 1930.23 886.188C1934.74 826.838 1931.71 767.686 1906.98 709.826C1861.01 601.544 1757.78 525.888 1672.63 440.997C1653.77 421.472 1634.06 402.494 1613.44 384.136C1510.38 292.314 1384.66 215.787 1242.9 159.628C1214.55 148.397 1185.55 137.98 1155.64 127.986C1016.98 80.1632 872.095 41.5903 721.277 46.8477C704.918 47.1288 688.46 47.7052 671.904 48.5486V48.5486Z" stroke="#0E2330" stroke-opacity="0.6" stroke-width="0.53" stroke-miterlimit="10"/>
<path d="M672.857 33.0295C603.195 37.1482 534.667 40.8593 465.958 50.1511C443.319 53.0328 420.876 56.3784 398.664 60.1739C309.814 75.3556 224.5 97.7065 143.838 126.397C116.956 135.956 90.5842 146.232 64.7547 157.168C-167.99 244.056 -363.166 393.877 -467.57 593.475C-480.081 614.013 -491.689 634.958 -502.36 656.254C-589.581 818.109 -609.541 1002.05 -563.473 1175.84C-558.77 1194.94 -553.377 1213.85 -547.294 1232.53C-535.094 1269.89 -520.051 1306.4 -502.327 1341.91C-491.689 1363.2 -480.098 1384.15 -467.57 1404.69C-383.998 1547.93 -226.982 1635.45 -94.2505 1746.7C-25.7227 1803.81 56.6819 1841.63 143.838 1871.78C170.736 1881.34 198.127 1890.21 226.012 1898.33C249.244 1905.11 272.821 1911.38 296.71 1917.27C479.144 1966.24 672.594 1975.14 860.865 1950.78C881.105 1948.47 901.18 1945.82 921.107 1942.81C960.944 1936.78 1000.09 1929.3 1038.48 1920.47C1067.27 1913.85 1095.63 1906.46 1123.5 1898.33C1212.15 1871.31 1300.64 1854.99 1393.45 1834.96C1525.31 1806.78 1641.55 1739.29 1690.99 1628.77C1697.29 1614.69 1703.69 1600.69 1710.28 1586.8C1716.89 1572.91 1723.73 1559.13 1732.23 1545.65C1742.16 1527.91 1756.91 1513.08 1773.4 1498.98C1863.61 1419.63 1985.92 1356.58 2003.28 1237.91C2014.56 1160.78 1979 1091.8 1955.57 1018.38C1945.16 983.52 1943.42 948.658 1946.03 912.77C1947.27 897.166 1948.15 881.535 1948.47 865.847C1949.11 834.457 1947.46 802.815 1941.68 770.666C1914.78 623.81 1783.8 525.916 1680.62 420.094C1665.15 404.434 1649.07 389.14 1632.4 374.253C1515.71 269.977 1370.35 185.002 1205.66 126.425C1178.78 116.866 1151.35 107.996 1123.07 99.2388C1008.3 63.1259 887.714 34.1962 764.765 32.3828C734.381 31.5816 703.767 31.8487 672.841 33.0435L672.857 33.0295Z" stroke="#0E2330" stroke-opacity="0.6" stroke-width="0.53" stroke-miterlimit="10"/>
<path d="M673.581 17.2151C626.608 18.6068 578.895 21.5729 531.872 25.776C508.443 27.8142 485.179 30.2883 462.128 33.2263C346.857 47.916 236.798 74.3435 134.105 110.85C106.713 120.578 79.8644 131.036 53.5745 142.169C-153.242 224.797 -338.882 350.876 -447.774 524.412C-462.095 544.823 -475.757 565.361 -488.499 586.278C-498.068 601.952 -507.095 617.864 -515.578 633.988C-524.062 650.112 -532.003 666.432 -539.435 682.963C-610.396 834.457 -626.87 1002.08 -590.173 1161.48C-586.309 1179.08 -581.837 1196.53 -576.773 1213.8C-556.534 1282.9 -526.742 1349.23 -488.499 1411.95C-475.757 1432.87 -462.062 1453.37 -447.33 1473.1C-419.544 1510.89 -386.579 1545.74 -347.547 1576.89C-220.027 1679.98 -102.915 1789.76 53.591 1855.98C79.8644 1867.2 106.73 1877.65 134.121 1887.38C154.656 1894.68 175.488 1901.58 196.599 1908.06C217.709 1914.54 239.1 1920.61 260.737 1926.24C454.86 1979.61 662.187 1992.97 864.285 1967.78C884.903 1965.44 905.356 1962.74 925.628 1959.66C966.189 1953.52 1006.08 1945.92 1045.16 1936.93C1074.47 1930.19 1103.34 1922.67 1131.74 1914.4C1164.46 1904.7 1196.55 1894.33 1231.24 1886.16C1401.26 1845.37 1596.44 1815.7 1684.05 1668.85C1693.82 1652.35 1703.08 1635.84 1712.19 1619.38C1721.28 1602.92 1730.21 1586.52 1739.28 1570.18C1755.18 1541.28 1776.87 1516.79 1802.89 1493.81C1875.76 1432.25 1959.04 1380.33 1998.94 1298.01C2045.78 1202.33 1998.94 1105.17 1972.91 1008.01C1965.1 978.347 1960.76 950.162 1964.74 921.148C1965.58 906.402 1966.19 891.656 1966.4 876.868C1966.83 847.306 1965.68 817.645 1961.62 787.731C1942.53 637.91 1815.01 530.372 1709.75 420.769C1695.61 406.037 1680.93 391.614 1665.77 377.529C1544.37 264.804 1390.64 173.165 1215.39 110.864C1188.02 101.136 1160.1 92.1118 1131.7 83.8181C1014.36 47.5505 892.91 21.5869 767.823 17.426C736.683 16.3436 705.28 16.3295 673.565 17.2292L673.581 17.2151Z" stroke="#0E2330" stroke-opacity="0.6" stroke-width="0.53" stroke-miterlimit="10"/>
<path d="M-631.491 999.053C-632.083 1036.18 -628.614 1073.26 -622.826 1110.09C-620.113 1128.32 -616.825 1146.39 -612.912 1164.31C-593.33 1253.87 -558.096 1339.39 -509.43 1419.17C-496.457 1440.45 -482.515 1461.31 -467.668 1481.71C-334.526 1640.64 -157.567 1777.1 42.4106 1871.03C69.1772 1882.36 96.5193 1893.01 124.388 1902.92C166.198 1917.77 209.209 1930.99 253.288 1942.46C275.32 1948.19 297.631 1953.49 320.189 1958.37C487.826 1996.63 663.93 2005.55 836.088 1987.99C862.526 1985.5 888.7 1982.41 914.629 1978.74C992.38 1967.72 1067.71 1951.44 1139.97 1930.4C1168.88 1921.99 1197.39 1912.84 1227.54 1903.8C1404.75 1857.19 1613.82 1821.59 1705.77 1662.88C1714.88 1647.48 1723.78 1632.09 1732.66 1616.77C1741.53 1601.43 1750.4 1586.15 1759.44 1570.98C1770.85 1550.88 1784.73 1532.34 1803.81 1516.76C1926.96 1416.65 2069.21 1306.89 2028.45 1143.72C2009.36 1064.36 1978.14 992.418 1985.31 912.812C1985.59 897.012 1985.57 881.183 1985.08 865.299C1984.11 833.53 1981.32 801.564 1975.53 769.176C1952.1 644.573 1861.89 548.155 1771.77 456.249C1753.55 436.977 1735.85 417.971 1717.51 399.43C1589.2 269.668 1420.27 164.605 1225.14 95.2746C1197.27 85.3643 1168.86 76.1991 1139.96 67.7788C937.17 3.76242 718.565 -12.5439 505.516 10.9456C477.813 13.6868 450.388 17.0886 423.26 21.123C287.618 41.3232 159.49 77.5626 42.4106 127.128C15.6439 138.458 -10.5472 150.477 -36.1958 163.072C-215.687 243.325 -366.619 366.438 -467.701 516.414C-482.515 536.881 -496.457 557.742 -509.43 579.024C-519.163 594.979 -528.354 611.173 -537.002 627.564C-545.65 643.969 -553.723 660.584 -561.236 677.397C-598.246 762.499 -624.256 852.24 -629.764 943.133C-631.047 961.647 -631.606 980.286 -631.474 999.053H-631.491Z" stroke="#0E2330" stroke-opacity="0.6" stroke-width="0.53" stroke-miterlimit="10"/>
</g>
</svg>
