<svg width="1728" height="1117" viewBox="0 0 1728 1117" fill="none" xmlns="http://www.w3.org/2000/svg">
<g clip-path="url(#clip0_127_7)">
<path d="M1234.87 -104.962C1234.87 13.6508 1159.2 115.412 1051.37 158.884C1033.39 166.134 1014.53 171.761 994.931 175.599C923.903 186.838 849.146 186.109 781.666 157.082C718.533 129.499 682.248 67.0832 657.105 6.95113C649.897 -10.5341 644.051 -28.5696 640.09 -47.2379C627.092 -103.49 633.625 -163.746 657.476 -216.463C665.151 -233.55 674.477 -249.824 685.288 -265.053C739.275 -341.226 830.715 -391.302 934.425 -391.302C975.909 -391.302 1015.43 -383.295 1051.37 -368.795C1069.34 -361.545 1086.41 -352.686 1102.42 -342.437C1167.02 -303.105 1213.45 -237.058 1228.79 -162.715C1232.76 -144.019 1234.87 -124.718 1234.87 -104.949V-104.962Z" stroke="#E0E0E0" stroke-width="0.53" stroke-miterlimit="10"/>
<path d="M934.425 -408.113C956.501 -408.113 978.054 -405.994 998.865 -401.95C1019.68 -397.905 1039.76 -391.962 1058.89 -384.286C1153.84 -348.71 1228.11 -264.641 1248.61 -165.782C1252.71 -146.014 1254.65 -125.653 1254.18 -104.963C1252.65 20.6118 1161.21 138.193 1044.37 179.781C1027.23 185.738 1009.39 190.333 990.97 193.469C920.271 204.956 846.973 202.783 778.035 179.561C704.008 154.152 665.55 81.5693 639.141 13.6233C631.576 -5.00377 625.386 -24.1124 621.15 -43.8813C602.416 -123.108 621.287 -208.759 669.25 -274.477C680.762 -290.6 693.87 -305.609 708.327 -319.325C766.192 -374.188 846.134 -408.113 934.425 -408.113V-408.113Z" stroke="#E0E0E0" stroke-width="0.53" stroke-miterlimit="10"/>
<path d="M934.425 -424.91C957.835 -424.91 980.681 -422.668 1002.76 -418.403C1024.83 -414.138 1046.13 -407.851 1066.4 -399.762C1168.39 -363.98 1246.86 -274.339 1267.97 -169.428C1272.2 -148.448 1274.12 -126.85 1273.49 -104.949C1270.06 27.1466 1173.55 150.547 1051.01 195.588C1032.83 201.875 1013.91 206.731 994.381 210.047C918.827 221.685 841.169 221.685 766.426 199.178C685.15 174.498 649.581 92.4787 621.054 20.4193C613.255 0.581652 606.68 -19.6137 602.1 -40.5382C573.394 -145.601 616.212 -258.821 694.668 -331.183C710.005 -345.656 726.813 -358.752 744.845 -370.253C798.956 -404.756 864.194 -424.896 934.425 -424.896V-424.91Z" stroke="#E0E0E0" stroke-width="0.53" stroke-miterlimit="10"/>
<path d="M934.425 -441.708C959.169 -441.708 983.322 -439.355 1006.65 -434.87C1029.98 -430.385 1052.48 -423.768 1073.92 -415.253C1165.28 -384.767 1238.35 -314.551 1272.36 -227.565C1279.17 -210.176 1284.41 -192.1 1287.93 -173.555C1292.15 -151.296 1293.89 -128.322 1292.81 -104.976C1292.14 -87.7386 1289.95 -70.6249 1286.38 -53.7725C1261.36 64.1529 1168.6 168.927 1057.65 211.34C1038.44 217.943 1018.45 223.061 997.792 226.569C964.547 229.65 931.165 234.727 897.796 235.8C880.933 236.584 864.07 236.749 847.33 235.965C797.099 233.626 747.926 222.744 703.292 194.075C658.659 165.763 639.333 119.498 621.411 73.0125C615.428 57.5221 609.61 42.0041 603.063 27.119C543.643 -98.4278 574.852 -252.314 681.024 -343.083C697.24 -358.312 714.997 -372.097 734.061 -384.203C791.253 -420.508 860.205 -441.708 934.438 -441.708H934.425Z" stroke="#E0E0E0" stroke-width="0.53" stroke-miterlimit="10"/>
<path d="M935.03 -459.33C960.503 -458.505 985.963 -456.029 1010.56 -451.324C1035.15 -446.619 1058.86 -439.672 1081.45 -430.729C1151.79 -401.84 1223.63 -364.819 1264.27 -295.14C1277.34 -273.087 1287.23 -250.127 1294.58 -226.547C1312.17 -167.392 1320.14 -102.789 1302.26 -42.8769C1297.02 -22.5165 1289.93 -2.56878 1281.19 16.7461C1246.23 93.992 1185.06 161.044 1112.42 203.429C1096.85 212.509 1080.77 220.461 1064.3 227.133C1008.82 246.351 950.765 249.254 893.629 254.482C875.459 255.844 857.275 256.642 839.243 256.38C785.132 255.61 732.342 245.265 685.164 212.234C645.248 184.293 622.209 144.37 605.58 100.65C600.037 86.0816 595.209 71.0865 590.697 55.9675C574.137 -9.87376 542.212 -73.7477 553.092 -145.615C562.528 -210.947 603.159 -261.022 641.108 -310.3C652.744 -325.474 664.89 -340.332 677.296 -354.846C689.675 -369.373 702.343 -383.57 714.915 -397.479C754.831 -440.304 809.258 -469.332 868.072 -463.169C888.608 -463.196 910.904 -461.834 935.044 -459.33H935.03Z" stroke="#E0E0E0" stroke-width="0.53" stroke-miterlimit="10"/>
<path d="M935.745 -477.159C956.597 -475.674 977.862 -473.651 998.824 -470.473C1019.79 -467.282 1040.18 -462.563 1059.91 -456.441C1128.56 -433.783 1196.04 -404.027 1249.02 -351.764C1262.93 -338.31 1274.48 -323.521 1284.07 -307.769C1293.67 -292.017 1301.31 -275.288 1307.48 -257.927C1329.57 -189.169 1340.46 -113.684 1323.82 -42.2165C1318.52 -21.8699 1310.71 -2.26607 1299.82 16.2372C1253.86 95.4778 1200.33 172.696 1123.54 218.287C1108.17 227.408 1091.89 235.277 1074.53 241.633C998.645 267.372 916.64 271.733 836.905 270.523C817.978 270.179 799.066 269.367 780.194 268.087C733.745 265.914 681.505 260.824 648.109 223.817C609.459 180.262 595.718 125.289 578.786 71.8019C573.133 53.9728 567.122 36.3087 559.681 19.2637C539.255 -38.9423 519.655 -99.1845 534.895 -162.329C552.308 -232.009 600.215 -282.098 641.135 -336.287C652.002 -349.893 663.322 -363.196 674.958 -376.183C698.231 -402.17 722.865 -426.891 747.541 -450.484C783.097 -484.602 833.906 -491.852 880.906 -484.065C897.576 -482.222 915.98 -480.021 935.718 -477.173L935.745 -477.159Z" stroke="#E0E0E0" stroke-width="0.53" stroke-miterlimit="10"/>
<path d="M936.804 -495.443C958.083 -493.063 980.021 -490.435 1001.96 -487.051C1023.94 -483.722 1045.34 -478.783 1066.01 -472.386C1144.53 -443.936 1227.26 -416.353 1283.13 -349.577C1295.07 -335.214 1304.88 -319.903 1312.94 -303.889C1355.7 -207.301 1372.38 -86.817 1322.26 10.7893C1315.98 22.8405 1308.71 34.5891 1300.54 46.0212C1249.75 119.209 1200.96 192.905 1128.13 235.662C1113.56 244.233 1098.04 251.579 1081.32 257.508C980.516 289.191 870.934 292.093 765.725 290.25C745.56 288.709 725.589 285.903 705.961 281.39C686.319 276.878 667.008 270.674 648.136 262.323C621.287 250.712 606.776 223.129 597.341 196.276C582.651 153.271 570.808 109.854 556.682 67.2483C551.951 53.0373 546.958 38.9088 541.415 24.8628C518.238 -43.2621 482.669 -122.365 521.14 -192.058C553.065 -250.127 595.167 -298.758 634.052 -351.241C646.61 -368.327 659.745 -384.96 673.651 -401.069C701.449 -433.274 732.328 -463.279 767.155 -490.38C800.537 -515.789 843.355 -515.06 881.882 -505.925C898.456 -502.858 916.888 -499.432 936.804 -495.429V-495.443Z" stroke="#E0E0E0" stroke-width="0.53" stroke-miterlimit="10"/>
<path d="M939.019 -515.198C959.788 -510.809 982.249 -507.37 1005.1 -503.628C1028.09 -500.147 1050.49 -495.002 1072.12 -488.316C1148.16 -461.353 1227.98 -436.672 1288.94 -380.048C1299.42 -370.363 1308.45 -359.908 1316.27 -348.806C1324.08 -337.704 1330.67 -325.983 1336.35 -313.781C1376.02 -211.648 1394.16 -88.2614 1339.88 12.3852C1330.8 30.4619 1320.24 47.8646 1308.6 64.7857C1273.7 115.522 1229.08 161.8 1188.8 207.887C1171.75 227.49 1151.61 242.912 1129.57 255.087C1012.45 313.857 876.738 305.149 749.797 310.624C729.206 309.785 708.753 307.804 688.52 304.255C668.287 300.705 648.274 295.588 628.55 288.448C605.332 279.74 590.092 258.691 582.83 235.456C571.221 198.807 562.514 161.787 553.065 125.097C548.347 106.759 543.423 88.4891 537.852 70.3849C504.456 -27.2902 436.962 -150.691 526.958 -240.69C561.07 -274.807 590.092 -310.369 617.464 -348.641C628.632 -364.764 639.705 -380.736 651.231 -396.295C685.7 -443.028 724.351 -486.033 775.146 -522.324C807.8 -545.546 847.716 -539.025 883.45 -528.817C899.901 -524.401 918.263 -519.614 939.032 -515.198H939.019Z" stroke="#E0E0E0" stroke-width="0.53" stroke-miterlimit="10"/>
<path d="M940.917 -534.705C961.783 -528.941 984.629 -524.497 1008.22 -520.219C1032.23 -516.587 1055.62 -511.222 1078.22 -504.261C1153.95 -476.595 1233.05 -457.721 1299.09 -406.187C1311.99 -396.309 1322.92 -385.359 1332.22 -373.569C1341.52 -361.765 1349.18 -349.109 1355.62 -335.82C1397.05 -228.349 1418.09 -97.6987 1361.17 7.81782C1352.03 25.0279 1341.66 41.5639 1330.32 57.6871C1296.36 106.071 1253.37 150.891 1217.08 199.165C1207.47 212.041 1196.9 223.748 1185.51 234.3C1174.13 244.852 1161.91 254.262 1149.02 262.543C1029.13 335.634 881.084 321.121 745.959 330.765C724.585 330.696 703.141 329.746 681.643 327.532C660.144 325.317 638.563 321.85 616.927 316.774C585.718 309.51 564.674 284.114 558.14 252.17C549.791 211.89 543.45 172.696 535.142 134.369C530.989 115.205 526.34 96.2619 520.686 77.4835C491.375 -20.0264 405.024 -141.955 496.465 -231.968C547.26 -281.328 590.807 -333.591 630.998 -390.476C640.957 -404.288 651.149 -417.894 661.671 -431.266C693.238 -471.381 727.693 -509.42 767.155 -544.803C800.537 -574.559 846.987 -568.754 885.458 -552.562C901.771 -546.743 920.051 -540.456 940.917 -534.691V-534.705Z" stroke="#E0E0E0" stroke-width="0.53" stroke-miterlimit="10"/>
<path d="M943.117 -554.735C964.066 -547.513 987.215 -541.914 1011.4 -536.865C1036.39 -533.013 1060.76 -527.441 1084.32 -520.205C1161.69 -486.886 1256.74 -479.319 1321.55 -424.374C1334.5 -413.382 1346.26 -400.505 1356.42 -385.139C1428.98 -255.932 1454.39 -73.0323 1353.51 48.9102C1342.26 63.245 1331.24 77.1259 1320.35 90.8004C1287.66 131.796 1256.09 170.853 1222.89 214.407C1212.9 227.284 1202.16 239.088 1190.7 249.763C1179.24 260.466 1167.07 270.027 1154.24 278.557C1034.2 356.683 884.702 337.079 748.627 347.81C731.585 348.649 714.53 349.419 697.474 350.148C656.114 351.607 613.296 353.051 574.824 333.461C547.246 319.676 534.179 290.635 532.006 262.323C528.375 221.671 524.207 181.391 516.78 141.977C513.066 122.263 508.527 102.769 502.792 83.5366C495.722 58.3612 483.384 35.8547 474.677 11.1746C450.73 -60.6785 394.13 -147.059 453.633 -213.836C518.953 -286.418 590.793 -347.389 643.666 -427.042C657.146 -444.927 670.9 -462.756 684.944 -480.654C698.987 -498.552 713.319 -516.518 727.954 -534.664C746.097 -557.886 767.141 -578.934 794.719 -589.83C825.928 -602.17 859.311 -589.83 887.7 -576.926C903.931 -569.731 922.155 -561.958 943.104 -554.735H943.117Z" stroke="#E0E0E0" stroke-width="0.53" stroke-miterlimit="10"/>
<path d="M945.194 -574.793C962.731 -567.557 981.947 -561.545 1002.04 -556.166C1023.32 -552.493 1044.74 -548.38 1065.63 -543.083C1086.52 -537.787 1106.85 -531.28 1126.89 -524.071C1194.8 -493.572 1278.69 -492.017 1338.36 -448.242C1350.29 -439.493 1361.26 -429.037 1370.94 -416.339C1434.8 -327.056 1444.97 -212.377 1442.07 -106.407C1439.89 -48.3383 1407.95 5.36915 1370.27 48.924C1360.42 60.4249 1350.93 71.8707 1341.63 83.3028C1295.18 140.436 1253.86 196.881 1205.47 254.344C1188.79 274.306 1169 290.195 1147.36 303.292C1026.95 375.558 881.084 353.051 747.128 367.138C729.729 368.156 712.315 369.009 694.874 369.56C660.007 370.66 625.084 370.481 590.064 368.294C550.149 366.12 511.691 337.808 508.788 294.983C504.428 241.633 507.839 187.471 497.977 135.442C494.69 118.094 489.917 100.981 482.902 84.2245C454.362 -17.1237 341.147 -147.774 444.926 -239.231C502.984 -290.036 566.847 -331.417 606.9 -397.396C616.817 -412.061 626.638 -426.657 636.596 -441.102C676.416 -498.896 718.519 -554.24 771.488 -604.33C808.501 -639.176 860.026 -620.301 898.112 -597.066C912.073 -589.651 927.644 -582.016 945.181 -574.779L945.194 -574.793Z" stroke="#E0E0E0" stroke-width="0.53" stroke-miterlimit="10"/>
<path d="M947.657 -595.429C965.345 -587.037 984.78 -579.938 1005.19 -573.583C1026.92 -569.18 1049.07 -564.764 1070.77 -559.275C1092.48 -553.786 1113.61 -547.031 1134.49 -539.616C1190.98 -518.678 1248.3 -505.623 1307.82 -489.651C1328.87 -483.845 1350.09 -476.045 1368.23 -464.517C1386.37 -452.988 1401.43 -437.745 1410.14 -417.069C1447.88 -318.348 1471.83 -212.377 1467.47 -106.407C1465.3 -38.1719 1417.39 16.2647 1374.82 65.8452C1365.56 76.9609 1356.35 87.7739 1347.16 98.4906C1310.39 141.344 1273.94 182.477 1241.04 233.282C1231.43 247.796 1220.91 261.223 1209.5 273.425C1198.09 285.669 1185.79 296.702 1172.64 306.649C1053.09 397.335 897.053 371.926 757.142 383.042C740.375 384.335 723.58 385.82 706.759 387.279C689.923 388.764 673.046 390.195 656.114 391.53C590.794 397.335 483.398 398.793 483.398 310.239C483.398 255.252 489.931 198.642 480.771 144.343C477.717 126.239 472.917 108.409 465.544 90.9655C460.538 73.0676 452.752 54.303 443.812 35.0294C425.353 -4.78354 404.295 -42.5329 389.096 -83.9967C381.944 -103.931 376.855 -123.658 375.438 -142.849C372.604 -181.232 384.461 -217.44 423.895 -248.655C491.389 -302.362 562.5 -343.744 607.368 -416.518C616.322 -429.271 625.235 -442.051 634.203 -454.956C652.153 -480.764 670.378 -507.054 689.497 -534.636C709.812 -564.393 728.683 -589.802 751.915 -617.385C792.56 -665.287 856.422 -655.134 900.231 -620.948C914.288 -612.556 929.968 -603.807 947.657 -595.415V-595.429Z" stroke="#E0E0E0" stroke-width="0.53" stroke-miterlimit="10"/>
<path d="M950.064 -616.133C967.972 -606.682 987.696 -598.565 1008.44 -591.247C1030.61 -586.06 1053.37 -581.163 1075.9 -575.481C1098.43 -569.799 1120.35 -562.797 1142.12 -555.231C1211.29 -528.129 1283.86 -520.866 1356.44 -500.547C1376.76 -494.37 1395.45 -484.038 1410.33 -469.965C1425.22 -455.905 1436.27 -438.117 1441.43 -417.082C1467.47 -313.286 1505.94 -210.204 1492.87 -100.615C1484.9 -34.5678 1439.89 19.8689 1394.3 65.5974C1380.72 78.6115 1368 91.7083 1355.8 104.998C1319.22 144.852 1287.52 186.384 1255.72 232.085C1247.23 244.274 1238.75 256.752 1230.16 269.573C1173.56 352.322 1070.51 385.71 974.712 394.418C896.338 401.682 817.964 390.057 740.375 402.618C719.66 405.259 698.946 408.12 678.259 410.39C616.212 417.282 554.523 418.741 494.291 398.779C459.451 387.168 455.104 345.072 459.451 312.413C465.984 254.702 472.917 195.78 461.638 139.968C457.869 121.368 452.065 103.099 443.468 85.325C414.46 17.7229 383.264 -49.0539 356.401 -117.289C347.337 -139.066 343.335 -163.196 346.883 -185.606C350.418 -208.017 361.491 -228.707 382.535 -243.579C462.367 -301.647 548.003 -340.841 598.07 -425.13C609.541 -441.529 620.999 -457.941 632.47 -474.436C666.884 -523.947 701.477 -574.381 737.404 -628.267C778.049 -689.238 852.791 -689.967 902.019 -644.514C916.296 -635.283 932.169 -625.557 950.077 -616.106L950.064 -616.133Z" stroke="#E0E0E0" stroke-width="0.53" stroke-miterlimit="10"/>
<path d="M951.604 -635.792C992.125 -613.781 1036.39 -600.711 1081.03 -591.687C1104.38 -585.813 1127.1 -578.576 1149.67 -570.762C1211.28 -547.719 1275.14 -539.011 1341.19 -528.858C1365.49 -525.227 1390.36 -518.334 1411.13 -506.269C1431.9 -494.204 1448.6 -476.967 1456.58 -452.644C1488.5 -339.41 1529.87 -226.176 1520.44 -107.15C1513.91 -28.7622 1451.5 29.3064 1396.79 81.6244C1386.32 91.7221 1375.93 101.613 1365.67 111.684C1345.18 131.824 1325.22 152.693 1307.06 177.373C1280.57 213.307 1258.99 253.409 1232.97 288.076C1224.29 299.674 1215.11 310.665 1205.1 320.873C1152.49 374.801 1079.19 400.21 1005.89 409.648C916.626 420.529 829.546 412.55 741.131 418.865C719.289 420.392 697.433 422.359 675.536 424.271C653.625 426.239 631.672 428.165 609.665 429.98C555.967 434.341 492.82 445.952 449.286 405.3C431.873 389.328 431.873 363.933 434.775 341.426C439.314 306.346 445.352 270.756 448.048 235.497C449.396 217.86 449.905 200.306 448.956 182.945C435.504 72.8749 367.281 -20.0402 328.094 -123.108C322.29 -140.524 317.215 -157.955 317.215 -176.733C316.857 -200.959 324.106 -224.36 344.064 -242.877C389.784 -284.244 444.94 -302.39 496.464 -338.695C529.118 -361.917 555.252 -388.055 577.52 -418.609C588.538 -433.646 599.294 -448.834 609.981 -464.118C641.947 -510.025 673.459 -556.909 704.75 -607.26C731.599 -649.356 761.351 -697.988 814.333 -702.349C847.716 -705.251 876.738 -684.932 903.339 -667.571C917.96 -657.693 934.15 -647.128 951.618 -635.806L951.604 -635.792Z" stroke="#E0E0E0" stroke-width="0.53" stroke-miterlimit="10"/>
<path d="M953.681 -656.139C995.014 -632.655 1040.02 -617.413 1086.17 -607.893C1110.32 -601.826 1133.84 -594.342 1157.21 -586.267C1221.44 -562.247 1288.94 -552.094 1357.16 -549.178C1407.95 -546.633 1444.61 -521.058 1467.92 -484.767C1475.71 -472.675 1482 -459.385 1487 -445.381C1492.86 -430.152 1497.22 -414.909 1500.12 -398.208C1511 -337.236 1523.34 -282.071 1539.31 -222.558C1550.19 -181.19 1553.09 -140.538 1547.29 -97.7126C1535.68 -22.2277 1471.82 24.2299 1423.1 75.4749C1410.32 87.9801 1397.43 100.086 1384.61 112.027C1371.82 123.969 1359.08 135.772 1346.99 147.631C1312.17 181.377 1289.98 220.846 1265.76 261.745C1257.69 275.379 1249.39 289.163 1240.31 302.961C1188.06 380.634 1095.17 419.828 1005.18 428.536C891.235 439.431 778.035 426.362 665.454 441.357C646.541 443.228 627.615 445.058 608.633 446.805C589.666 448.552 570.657 450.217 551.607 451.772C492.104 456.848 396.304 448.869 410.815 366.12C413.992 347.218 417.637 328.247 421.021 309.304C424.404 290.346 427.54 271.417 429.686 252.569C448.543 123.693 364.365 13.3618 312.841 -99.8587C301.232 -125.268 288.894 -151.393 287.477 -179.993C287.078 -195.03 290.159 -209.998 298.33 -224.704C334.614 -290.751 416.619 -301.647 479.753 -345.188C516.037 -369.139 544.344 -395.993 568.91 -429.216C581.702 -446.784 594.15 -464.53 606.488 -482.415C643.405 -536.095 679.497 -590.972 714.888 -650.044C735.932 -684.891 763.51 -717.55 805.599 -724.8C843.328 -730.606 874.537 -708.828 904.068 -689.802C919.171 -679.443 935.786 -668.204 953.667 -656.097L953.681 -656.139Z" stroke="#E0E0E0" stroke-width="0.53" stroke-miterlimit="10"/>
<path d="M955.511 -676.114C997.93 -650.787 1044.38 -635.544 1091.31 -624.085C1116.29 -617.812 1140.59 -610.094 1164.73 -601.716C1236.7 -575.302 1312.17 -570.941 1387.65 -564.421C1424.67 -561.16 1455.88 -544.28 1478.09 -519.242C1489.2 -506.723 1498.07 -492.155 1504.31 -476.238C1508.12 -464.985 1512.48 -454.103 1513.92 -441.763C1520.45 -371.354 1543.67 -308.209 1562.54 -239.974C1574.88 -192.801 1582.86 -147.073 1572.71 -98.4417C1553.84 -4.81125 1476.19 52.5281 1406.72 105.424C1395.01 115.04 1383.66 124.753 1372.78 134.905C1351.01 155.224 1331.05 177.373 1313.64 204.227C1296.71 230.118 1281.87 258.017 1266.08 284.596C1258.18 297.885 1250.04 310.844 1241.28 323.102C1181.57 411.821 1069.81 450.286 967.491 451.744C866.614 453.188 765.738 443.036 665.935 457.343C643.666 459.709 621.398 461.938 599.088 463.85C576.778 465.762 554.44 467.358 532.061 468.445C494.333 470.619 454.417 472.077 418.847 455.376C387.638 440.862 382.563 403.842 388.367 372.627C392.177 353.574 396.757 334.754 401.131 316.058C405.505 297.376 409.673 278.818 412.63 260.328C434.087 121.478 331.038 6.07054 281.686 -117.316C273.709 -137.636 267.175 -157.968 265.112 -179.925C263.654 -193.503 263.916 -207.439 266.446 -221.829C281.686 -307.48 387.638 -313.286 455.861 -348.848C503.754 -374.257 546.573 -406.916 574.88 -452.644C582.623 -464.861 590.12 -476.884 597.451 -488.757C634.121 -548.173 666.678 -604.22 704.778 -665.315C722.92 -694.342 743.236 -719.751 773.716 -735.723C817.978 -758.945 868.059 -738.626 904.247 -711.263C919.969 -700.629 937.121 -688.867 955.538 -676.114H955.511Z" stroke="#E0E0E0" stroke-width="0.53" stroke-miterlimit="10"/>
<path d="M957.023 -695.663C992.84 -672.565 1033.49 -657.322 1074.32 -645.752C1096.59 -640.662 1118.56 -634.733 1139.96 -627.758C1180.81 -614.51 1220 -600.711 1263.54 -593.462C1341.2 -581.851 1427.55 -599.267 1490.69 -544.101C1511.73 -525.598 1522.98 -501.826 1528.97 -476.238C1539.31 -383.694 1571.96 -299.501 1595.91 -208.044C1609.69 -153.607 1608.25 -97.7125 1581.4 -47.6368C1537.85 35.1118 1457.31 78.6528 1390.09 135.813C1374.81 148.704 1360.13 162.172 1346.69 177.057C1333.25 191.942 1321.05 208.217 1310.71 226.734C1296.91 251.895 1284.03 278.914 1269.56 304.571C1262.32 317.393 1254.7 329.898 1246.37 341.715C1177.18 440.862 1045.09 477.153 928.992 471.348C846.987 466.987 765.711 456.834 684.242 469.821C665.522 472.077 646.816 474.319 628.096 476.342C571.95 482.422 515.707 486.591 458.736 483.688C431.158 482.23 400.677 477.883 380.362 456.105C362.949 437.23 362.949 412.55 368.024 388.599C370.803 374.443 374.09 360.37 377.487 346.365C380.871 332.36 384.378 318.411 387.569 304.53C399.962 252.872 409.384 196.248 386.895 146.902C359.317 87.3748 331.739 30.7646 304.161 -28.7484C291.824 -53.4286 277.313 -75.9213 264.246 -100.601C243.93 -139.795 227.232 -181.176 233.036 -225.447C235.581 -243.964 243.146 -258.422 253.998 -270.13C286.556 -305.238 348.603 -315.445 392.686 -335.049C455.82 -363.361 518.953 -396.749 556.668 -455.767C568.153 -472.207 579.377 -488.77 590.408 -505.499C623.419 -555.712 654.574 -607.425 683.692 -662.412C706.195 -705.238 738.119 -744.431 785.297 -760.403C830.289 -774.917 875.28 -752.424 910.505 -726.877C925.168 -717.426 940.614 -706.916 957.023 -695.663V-695.663Z" stroke="#E0E0E0" stroke-width="0.53" stroke-miterlimit="10"/>
<path d="M958.22 -714.716C995.743 -692.168 1036.39 -675.481 1078.83 -662.288C1101.74 -656.868 1124.39 -650.773 1146.47 -643.579C1233.05 -605.802 1327.39 -605.073 1420.29 -597.809C1481.25 -592.911 1525.06 -550.443 1543.78 -496.763C1550.03 -478.865 1553.67 -459.743 1555.03 -440.387C1563.26 -363.361 1592.29 -292.223 1618.41 -218.912C1671.4 -69.3868 1545.12 50.3682 1429.54 119.91C1417.82 128.316 1406.15 136.749 1394.9 145.457C1350.64 179.574 1320.16 223.845 1298.39 273.205C1290.94 290.264 1282.87 307.543 1273.74 324.175C1264.59 340.862 1254.37 356.903 1242.67 371.829C1134.38 502.576 950.765 498.215 794.747 480.07C754.102 474.993 714.915 479.341 675.027 484.554C655.77 486.756 636.541 488.957 617.312 490.952C559.612 496.936 501.925 501.118 443.509 498.215C413.029 496.771 378.918 491.681 358.602 464.827C349.167 451.758 346.086 437.423 346.264 422.73C346.443 408.038 349.896 392.974 353.527 378.46C372.398 308.052 402.149 230.393 369.496 159.984C315.798 43.8474 261.371 -67.9286 208.388 -184.795C206.215 -191.329 205.486 -197.864 204.84 -204.123C203.01 -219.132 204.166 -233.976 208.306 -247.761C216.558 -275.344 236.695 -298.758 268.633 -311.084C360.803 -346.646 467.484 -362.618 532.873 -442.107C541.635 -454.13 549.764 -466.223 557.631 -478.246C596.901 -538.365 631.48 -595.621 660.502 -660.954C701.862 -756.042 821.609 -823.548 909.749 -746.481C925.099 -736.948 941.192 -726.245 958.248 -714.702L958.22 -714.716Z" stroke="#E0E0E0" stroke-width="0.53" stroke-miterlimit="10"/>
<path d="M959.417 -733.632C1003.01 -705.238 1051.63 -687.092 1100.84 -674.202C1118.52 -669.868 1135.92 -664.957 1152.99 -659.399C1175.74 -651.998 1198.17 -643.771 1221.94 -636.783C1246.12 -629.024 1270.79 -626.121 1295.47 -623.218C1376.02 -613.781 1470.36 -630.482 1529.88 -564.42C1539.67 -553.539 1547.15 -541.598 1552.87 -528.969C1558.58 -516.34 1562.53 -502.995 1565.25 -489.293C1570.51 -456.992 1573.42 -425.062 1581.4 -392.389C1604.62 -303.834 1656.87 -225.447 1653.24 -133.99C1648.88 -14.221 1545.12 67.7985 1447.44 121.382C1432.95 130.764 1418.93 140.284 1405.59 150.533C1378.92 171.045 1354.97 194.446 1336.1 225.289C1323.03 245.98 1312.69 266.849 1303.08 287.898C1293.46 308.946 1284.58 330.173 1274.41 351.593C1209.82 468.459 1061.05 517.09 933.324 507.653C860.026 502.576 786.728 490.952 713.141 495.725C694.792 496.826 676.457 498.546 658.122 500.251C603.09 505.52 548.058 510.555 492.806 512.729C442.01 514.173 377.418 523.611 343.307 474.264C334.229 461.016 329.841 447.369 328.548 433.447C327.269 419.539 329.099 405.355 332.51 391.062C357.818 315.302 389.027 231.108 346.209 154.165C281.618 38.0282 231.551 -81.0115 178.596 -199.941C172.392 -220.37 170.577 -241.419 178.568 -262.467C190.906 -297.314 227.191 -309.654 258.4 -322.709C347.667 -358.271 449.259 -377.146 515.061 -451.805C529.269 -468.616 541.648 -486.459 553.656 -504.55C589.473 -558.89 622.058 -615.404 649.553 -676.926C692.371 -772.73 816.465 -835.888 908.291 -765.177C924.411 -755.685 941.275 -744.927 959.376 -733.632H959.417Z" stroke="#E0E0E0" stroke-width="0.53" stroke-miterlimit="10"/>
<path d="M959.596 -751.214C1005.92 -724.828 1054.54 -703.779 1105.82 -690.476C1124 -685.991 1141.93 -680.929 1159.5 -675.206C1182.94 -667.598 1205.93 -659 1230.37 -651.819C1243.23 -648.614 1255.55 -645.711 1268.62 -642.808C1346.99 -629.01 1424.65 -640.634 1497.94 -610.864C1542.02 -592.898 1566.1 -552.479 1577.53 -508.278C1581.34 -493.544 1583.75 -478.398 1585.31 -463.54C1598.08 -377.875 1633.64 -299.473 1664.12 -218.183C1722.91 -58.5049 1578.48 70.7013 1449.84 136.309C1436.11 144.948 1422.47 153.684 1409.4 162.874C1375.29 186.095 1352.8 215.866 1333.93 250.699C1325.04 266.849 1317.56 283.949 1310.35 301.201C1303.14 318.452 1296.21 335.868 1288.44 352.624C1231.62 481.514 1071.96 534.506 940.601 525.784C852.791 519.979 764.982 503.278 676.526 511.862C659.374 513.183 642.222 514.559 625.056 515.893C590.725 518.562 556.338 521.066 521.869 522.868C455.833 526.5 367.295 545.374 327.379 480.771C317.765 465.171 313.638 449.295 313.006 433.213C312.387 417.145 315.261 400.884 319.663 384.5C342.619 317.448 370.197 241.963 331.726 174.457C264.232 56.8755 217.796 -64.338 162.998 -184.808C156.41 -199.35 150.481 -215.143 148.308 -231.101C146.135 -247.073 147.758 -263.224 156.107 -278.466C174.249 -311.855 211.992 -323.466 244.645 -336.535C329.552 -369.923 425.353 -387.34 492.118 -451.681C507.303 -467.846 520.04 -485.372 531.993 -503.408C567.576 -557.583 599.885 -614.001 627.106 -675.509C672.097 -777.132 803.453 -851.888 906.338 -782.979C923.325 -773.665 941.027 -762.962 959.609 -751.241L959.596 -751.214Z" stroke="#E0E0E0" stroke-width="0.53" stroke-miterlimit="10"/>
<path d="M959.774 -768.644C1007.37 -742.244 1058.16 -720.467 1110.79 -706.751C1129.49 -702.101 1147.92 -696.901 1166.01 -691.027C1190.12 -683.199 1213.67 -674.257 1238.66 -666.704C1304.18 -647.169 1372.38 -648.614 1439.88 -643.537C1519.11 -636.879 1576.65 -579.319 1595.73 -506.971C1599.56 -492.499 1601.85 -477.448 1602.93 -462.109C1611.85 -374.972 1656.13 -298.043 1685.88 -216.023C1741.04 -63.595 1610.41 74.3195 1481.6 133.489C1467.81 141.179 1454.02 148.47 1440.59 155.61C1386.9 184.637 1349.88 233.998 1327.38 289.892C1321.03 305.314 1315.08 321.465 1308.78 337.561C1302.47 353.67 1295.79 369.725 1287.96 384.967C1221.43 504.736 1064.68 554.826 934.053 543.201C856.409 536.666 779.479 519.979 701.394 523.694C682 524.492 662.606 525.84 643.199 527.174C584.962 531.301 526.656 535.318 468.144 536.68C412.988 538.125 340.419 542.486 310.667 487.32C303.226 473.343 299.733 459.187 298.907 444.921C298.082 430.655 299.911 416.279 303.13 401.847C322.992 334.892 357.832 260.122 317.187 194.075C253.325 91.0068 213.409 -13.5193 169.875 -122.393C161.169 -145.615 151.004 -167.392 140.124 -189.898C135.049 -201.509 131.417 -213.12 128.061 -224.552C123.44 -242.877 122.711 -261.752 129.244 -280.626C142.311 -318.376 181.498 -335.792 216.325 -348.132C309.209 -381.52 414.446 -395.319 484.677 -468.589C496.423 -482.291 506.395 -496.97 515.845 -511.979C544.014 -557.088 569.295 -604.082 590.794 -654.433C639.416 -768.396 781.652 -870.006 903.766 -799.9C921.674 -790.806 940.298 -780.296 959.761 -768.658L959.774 -768.644Z" stroke="#E0E0E0" stroke-width="0.53" stroke-miterlimit="10"/>
<path d="M959.747 -785.716C1009.54 -759.674 1060.33 -736.439 1115.75 -723.012C1134.97 -718.224 1153.93 -712.886 1172.53 -706.847C1197.32 -698.813 1221.48 -689.568 1246.85 -681.41C1266.45 -674.738 1286.03 -671.106 1306.36 -668.204C1394.9 -655.863 1494.32 -670.377 1562.54 -602.156C1580.68 -584.368 1592.66 -562.783 1600.64 -539.548C1608.62 -516.326 1612.62 -491.467 1615.13 -467.172C1620.6 -436.672 1627.86 -407.631 1638.74 -378.604C1664.15 -311.827 1699.7 -252.314 1715.67 -180.447C1732.37 -102.06 1695.36 -30.1929 1648.18 32.2228C1601.01 93.9232 1533.52 120.048 1469.66 153.629C1456.71 160.948 1444.07 168.624 1432.01 176.947C1395.81 201.902 1364.79 232.567 1346.29 276.108C1335.16 302.232 1325.73 331.274 1314.64 359.407C1309.1 373.466 1303.14 387.32 1296.35 400.485C1279.53 435.07 1254.85 466.285 1220.75 485.875C1132.22 535.236 1039.33 576.603 936.997 562.818C859.352 551.923 784.596 535.236 706.882 536.474C687.942 536.749 669.002 537.781 650.048 538.881C593.173 542.307 536.229 546.131 479.079 548.305C421.02 549.763 354.256 554.839 308.535 511.285C291.48 494.584 285.496 473.535 285.318 451.4C285.139 429.265 290.764 406.029 296.913 384.981C309.993 339.982 319.429 293.524 313.611 245.622C308.535 198.435 275.153 167.964 249.019 129.485C230.148 101.173 219.268 73.5903 209.832 43.1047C183.712 -39.644 151.774 -116.573 119.245 -194.92C114.582 -208.072 110.703 -221.498 108.516 -235.379C106.315 -249.26 105.82 -263.568 107.512 -278.453C111.858 -319.105 151.774 -339.424 185.886 -354.667C286.033 -397.492 411.585 -401.124 480.715 -493.695C490.481 -507.755 499.202 -522.406 507.482 -537.333C524.07 -567.172 539.062 -598.056 552.363 -630.482C608.963 -769.841 784.596 -895.415 929.528 -801.757C939.321 -796.626 949.376 -791.233 959.761 -785.73L959.747 -785.716Z" stroke="#E0E0E0" stroke-width="0.53" stroke-miterlimit="10"/>
<path d="M959.334 -802.17C1019.69 -769.827 1084.28 -747.334 1150.1 -731.431C1172.81 -725.048 1195.05 -717.674 1216.74 -709.378C1294.01 -674.752 1377.47 -680.557 1461.65 -666.044C1518.98 -655.877 1574.14 -629.024 1600.26 -575.316C1607.02 -561.284 1612.43 -546.99 1616.76 -532.49C1621.1 -517.99 1624.36 -503.284 1626.84 -488.426C1638.73 -401.11 1677.92 -322.723 1714.93 -242.877C1787.5 -87.546 1666.31 89.5622 1519.57 145.168C1506.41 151.4 1493.16 157.453 1480.12 163.781C1467.1 170.096 1454.28 176.672 1442.07 183.922C1373.73 224.45 1350.75 296.221 1325.67 365.226C1320.65 379.024 1315.55 392.713 1309.99 406.029C1296.21 440.876 1273.71 472.806 1240.33 493.125C1145.98 550.465 1045.11 595.464 933.352 579.506C858.609 568.624 786.755 551.923 711.93 549.804C693.403 549.488 674.875 550.038 656.334 550.74C600.697 552.996 545.004 555.83 489.216 557.728C421.722 560.631 337.544 572.971 293.268 509.826C280.394 491.86 274.493 473.26 272.939 454.248C271.384 435.236 274.176 415.824 278.592 396.234C293.997 335.621 322.304 265.226 278.028 212.963C197.467 118.603 168.445 10.4592 137.965 -104.949C127.085 -147.045 105.311 -182.607 90.8826 -222.351C82.4511 -248.118 80.6355 -274.436 93.6886 -299.473C143.04 -394.562 267.134 -386.569 354.943 -427.221C396.304 -446.096 436.948 -468.589 461.033 -507.934C469.602 -521.65 477.304 -535.82 484.856 -550.127C499.931 -578.755 514.373 -607.948 529.118 -637.718C594.439 -767.64 753.359 -895.388 904.632 -827.937C922.279 -820.494 940.449 -811.717 959.348 -802.156L959.334 -802.17Z" stroke="#E0E0E0" stroke-width="0.53" stroke-miterlimit="10"/>
<path d="M958.605 -818.1C1021.15 -785.799 1087.91 -764.751 1155.85 -747.472C1179.16 -740.923 1201.99 -733.357 1224.26 -724.855C1297.66 -692.897 1376.76 -689.266 1455.85 -681.287C1540.03 -673.06 1596.47 -616.766 1625.4 -545.958C1632.64 -528.253 1638.14 -509.654 1641.95 -490.655C1653.25 -402.569 1691.71 -324.896 1732.36 -245.78C1787.51 -138.351 1737.43 -20.0402 1665.59 67.0557C1624.23 117.86 1566.89 145.443 1507.39 165.776C1489.49 171.458 1473.38 179.024 1458.83 188.145C1386.1 233.722 1352.33 318.204 1328.14 401.682C1320.52 427.449 1307.63 451.62 1290.1 472.283C1160.5 594.033 968.192 624.519 796.92 572.256C765.711 562.818 732.328 562.089 698.836 562.007C681.216 561.938 663.583 562.543 645.936 563.245C575.388 566.079 504.814 570.068 434.06 568.624C383.264 567.166 324.477 566.45 288.192 525.798C274.218 510.198 266.653 493.277 263.283 475.544C259.913 457.811 260.752 439.28 263.613 420.461C277.313 353.78 304.89 281.184 258.441 218.768C215.623 162.158 159.738 117.145 150.316 44.563C139.436 -38.9148 118.392 -117.303 85.9035 -192.471C80.5255 -206.49 75.5463 -220.769 72.0939 -235.517C68.6415 -250.264 66.7296 -265.493 66.8534 -281.342C68.2976 -340.139 129.258 -366.264 177.165 -385.868C275.139 -425.061 400.678 -439.575 453.385 -542.409C461.872 -558.175 469.877 -574.257 477.318 -590.71C484.773 -607.177 491.664 -624.03 497.923 -641.35C585.732 -764.021 739.591 -903.38 901.097 -842.904C919.735 -835.751 938.84 -827.345 958.619 -818.087L958.605 -818.1Z" stroke="#E0E0E0" stroke-width="0.53" stroke-miterlimit="10"/>
<path d="M957.505 -833.481C1015.34 -806.847 1075.59 -785.084 1137.53 -769.923C1153.69 -765.879 1169.63 -761.394 1185.35 -756.469C1201.07 -751.53 1216.56 -746.151 1231.79 -740.332C1254.63 -731.61 1277.55 -722.695 1302.69 -716.491C1350.63 -704.509 1398.53 -702.321 1448.6 -693.613C1512.46 -682.731 1574.87 -662.398 1611.88 -605.059C1630.98 -575.302 1642.53 -544.17 1649.88 -512.226C1653.57 -496.254 1656.25 -480.09 1659.58 -463.856C1674.28 -385.84 1714.2 -318.348 1749.03 -247.939C1802.01 -141.969 1757 -30.9083 1692.43 61.9931C1660.49 107.722 1618.4 139.665 1568.37 158.526C1555.75 163.369 1542.94 168.294 1530.21 173.508C1466.48 199.605 1404.2 233.172 1378.19 301.517C1362.59 343.985 1351.16 393.703 1331.04 436.556C1324.33 450.864 1316.65 464.414 1307.55 476.892C1251.92 544.673 1164.84 572.985 1083.55 599.839C1020.42 620.887 955.827 620.887 889.062 606.373C831.733 594.763 779.479 579.52 722.783 576.383C700.569 574.787 678.328 574.663 656.1 574.994C589.349 576.245 522.584 579.162 455.82 578.791C394.13 578.791 324.463 578.061 277.299 531.604C261.701 516.719 254.439 498.215 251.811 478.433C249.184 458.65 251.179 437.602 254.081 417.64C264.246 353.766 281.659 279.726 235.21 224.56C189.489 170.124 125.627 125.124 121.996 50.3546C117.635 -48.366 96.5908 -144.17 55.9597 -233.453C49.0687 -252.686 47.707 -270.886 50.5817 -287.752C59.2196 -338.378 106.026 -377.159 156.107 -396.763C250.45 -433.054 367.295 -449.742 422.382 -544.074C431.955 -562.164 440.951 -580.764 449.286 -599.996C500.811 -717.578 613.296 -795.25 727.239 -849.687C780.937 -875.096 841.897 -875.811 897.191 -857.129C916.846 -850.498 936.928 -842.533 957.491 -833.495L957.505 -833.481Z" stroke="#E0E0E0" stroke-width="0.53" stroke-miterlimit="10"/>
<path d="M956.336 -848.655C1016.8 -823.534 1078.48 -801.042 1142.64 -786.101C1159.22 -781.974 1175.57 -777.379 1191.68 -772.331C1207.8 -767.282 1223.67 -761.765 1239.28 -755.808C1262.71 -746.866 1285.99 -737.512 1311.33 -730.647C1403.59 -705.953 1507.37 -715.39 1586.48 -650.058C1617.31 -624.291 1636.73 -591.811 1649.61 -556.331C1656.05 -538.598 1660.86 -520.109 1664.64 -501.344C1677.9 -409.805 1725.08 -330.688 1765.71 -247.953C1817.97 -140.524 1770.07 -28.0192 1710.56 67.7849C1678.63 118.59 1629.99 151.978 1576.05 174.787C1560.73 181.652 1545.01 187.925 1529.49 194.033C1513.97 200.141 1498.65 206.057 1484.13 212.234C1402.12 247.081 1379.62 336.35 1357.13 415.467C1352.77 430.531 1347.02 445.044 1339.88 458.636C1332.74 472.256 1324.23 484.94 1314.37 496.537C1262.07 554.826 1185.14 579.506 1114.03 607.089C1042.91 633.943 968.894 639.748 891.964 623.79C815.035 607.818 744.639 584.596 668.452 586.04C649.828 585.683 631.232 585.903 612.677 586.384C519.861 588.833 427.637 598.009 333.899 574.416C303.419 567.152 275.841 553.367 257.698 525.785C250.078 513.444 245.361 500.568 242.733 487.32C240.106 474.072 239.556 460.466 240.285 446.668C245.361 376.259 269.307 294.969 216.338 236.171C165.543 179.561 89.3422 133.103 91.5154 51.0839C93.6886 -33.1093 89.3421 -119.49 55.1207 -197.864C49.7839 -210.039 44.9286 -223.012 41.3524 -236.301C30.5963 -276.183 31.284 -318.912 61.7642 -351.035C87.8842 -380.062 121.996 -396.763 156.836 -411.277C248.277 -451.2 356.401 -480.227 405.56 -574.903C416.757 -593.943 428.132 -613.175 439.864 -632.655C504.456 -739.355 610.408 -808.305 721.435 -859.11C775.133 -883.79 836.093 -887.422 892.9 -870.46C913.724 -864.723 934.782 -857.267 956.336 -848.655V-848.655Z" stroke="#E0E0E0" stroke-width="0.53" stroke-miterlimit="10"/>
<path d="M955.043 -863.554C1018.25 -839.52 1081.38 -817.743 1147.77 -802.307C1164.76 -798.084 1181.51 -793.393 1198.03 -788.22C1214.55 -783.048 1230.81 -777.407 1246.82 -771.299C1270.82 -762.151 1294.52 -752.369 1319.13 -743.716C1366.59 -732.091 1413.76 -722.654 1462.38 -716.133C1574.26 -701.62 1648.34 -617.041 1675.81 -515.734C1681.31 -495.47 1685.15 -474.559 1688.53 -453.47C1706.22 -377.16 1754.12 -313.286 1783.87 -241.433C1813.62 -171.024 1805.64 -92.6363 1775.16 -23.686C1743.95 45.2643 1711.3 117.847 1647.02 161.346C1633.61 170.66 1618.96 178.281 1603.17 183.908C1524.8 211.491 1432.63 237.615 1403.61 325.44C1388.37 370.811 1375.67 422.345 1353.53 466.258C1346.14 480.909 1337.72 494.707 1327.79 507.185C1251.94 585.284 1143.8 621.575 1034.94 641.908C973.254 654.248 915.196 646.984 854.964 632.47C797.635 617.957 743.208 602.714 685.398 600.017C664.243 599.316 643.075 598.986 621.893 598.834C558.333 598.367 494.649 599.453 431.158 596.908C376.002 594.735 319.402 590.374 271.494 555.541C250.078 539.94 238.469 518.699 232.844 495.381C227.218 472.063 227.576 446.654 230.12 422.703C237.383 361.002 241.729 289.878 193.107 241.963C137.222 187.526 52.3148 141.068 63.2084 53.2435C73.3731 -30.9496 76.2753 -115.157 40.2245 -192.829C33.2647 -210.782 27.1164 -228.749 23.8565 -246.715C17.3231 -282.662 22.3298 -318.623 48.6973 -353.951C106.026 -430.895 201.827 -443.235 282.374 -486.776C308.494 -500.56 331.726 -518.72 351.299 -539.74C362.839 -555.355 372.604 -571.932 381.792 -589.114C457.264 -730.647 600.958 -823.562 748.27 -878.728C804.155 -899.776 865.831 -893.971 921.509 -874.862C932.54 -871.409 943.695 -867.612 955.029 -863.568L955.043 -863.554Z" stroke="#E0E0E0" stroke-width="0.53" stroke-miterlimit="10"/>
<path d="M953.571 -878.122C1019.7 -855.478 1085.02 -833.701 1152.92 -818.486C1170.3 -814.18 1187.47 -809.365 1204.39 -804.068C1221.29 -798.772 1237.95 -793.008 1254.34 -786.762C1278.92 -777.407 1303.08 -767.254 1327.9 -757.955C1419.58 -730.619 1521.9 -732.078 1600.28 -666.745C1650.72 -623.92 1674.31 -568.217 1688.66 -508.691C1693.46 -488.853 1697.72 -468.603 1703.82 -448.407C1714.21 -411.979 1729.45 -378.59 1748.33 -344.486C1786.07 -276.981 1824.53 -208.03 1815.82 -128.913C1802.75 -21.4846 1755.59 83.0277 1681.66 160.783C1666.32 173.948 1648.91 184.651 1630.77 193.359C1579.97 216.581 1526.99 225.289 1478.36 258.691C1406.52 308.052 1404.34 394.419 1375.31 465.556C1369.87 478.983 1362.98 491.557 1354.85 503.127C1346.72 514.71 1337.35 525.303 1326.98 534.864C1176.46 650.644 972.539 696.372 788.213 632.498C747.568 617.984 704.75 612.908 661.478 611.697C640.186 610.789 618.853 610.267 597.52 609.881C533.492 608.74 469.258 608.918 405.038 604.2C339.717 599.839 259.899 586.054 230.863 520.007C225.059 506.58 221.524 492.836 219.529 478.887C217.549 464.937 217.109 450.781 217.521 436.543C227.232 363.96 220.699 284.844 156.107 235.483C96.6046 189.755 19.6751 142.582 34.9152 58.3751C50.1553 -26.5472 63.9374 -110.74 32.3018 -190.765C27.6253 -204.219 22.8387 -217.825 18.9461 -231.775C15.0536 -245.725 12.0413 -260.018 10.2395 -274.779C0.803824 -349.535 62.4932 -399.625 122.725 -430.839C197.467 -469.304 286.734 -491.082 333.926 -565.383C342.152 -581.273 350.666 -596.461 360.005 -610.85C425.463 -711.525 532.378 -772.262 636.514 -840.222C722.15 -896.832 822.297 -920.783 918.511 -888.674C930.051 -885.469 941.715 -881.919 953.544 -878.109L953.571 -878.122Z" stroke="#E0E0E0" stroke-width="0.53" stroke-miterlimit="10"/>
<path d="M951.962 -892.471C1012.44 -873.624 1072.69 -854.763 1134.21 -840.414C1150.18 -836.769 1166 -832.834 1181.64 -828.514C1197.28 -824.195 1212.71 -819.476 1227.93 -814.386C1250.78 -806.737 1273.16 -798.208 1295.02 -788.867C1365.14 -757.501 1440.62 -748.063 1515.36 -725.57C1608.25 -697.988 1656.33 -631.761 1685.92 -553.112C1693.32 -533.453 1699.57 -513.01 1705.07 -492.21C1725.82 -412.735 1767.91 -343.056 1802.74 -269.015C1830.32 -212.405 1839.75 -149.976 1824.51 -87.5598C1800.57 8.25805 1764.28 101.889 1698.58 173.508C1687.54 183.399 1675.22 192.025 1662.06 199.701C1622.58 222.73 1575.6 237.244 1533.51 252.129C1450.77 281.157 1425.38 367.537 1402.88 444.48C1394.17 472.792 1381.11 500.375 1363.24 523.804C1354.31 535.525 1344.17 546.214 1332.77 555.5C1201.86 638.991 1048.73 699.963 886.16 670.935C809.959 657.151 741.75 628.839 666.664 624.684C648.728 623.226 630.765 622.084 612.787 621.19C558.869 618.493 504.8 617.943 450.731 617.228C366.662 616.622 252.871 595.354 217.274 515.604C210.163 499.66 206.16 481.363 206.16 460.438C210.52 387.856 209.791 306.566 147.373 255.032C84.2392 203.498 -13.0058 157.041 8.03873 61.2365C26.91 -20.783 50.1278 -100.629 22.2885 -180.365C17.1718 -194.425 11.6287 -209.048 7.06216 -223.975C-6.60991 -268.754 -10.2824 -316.381 17.4744 -358.299C71.1723 -441.047 161.884 -460.637 240.987 -512.171C278.729 -536.851 306.307 -568.066 328.067 -605.073C340.886 -624.786 354.833 -642.877 369.73 -659.66C444.17 -743.592 542.034 -795.002 639.402 -855.478C714.874 -901.936 801.239 -925.887 887.123 -907.824C908.539 -904.096 930.051 -898.813 951.934 -892.471H951.962Z" stroke="#E0E0E0" stroke-width="0.53" stroke-miterlimit="10"/>
<path d="M950.311 -906.668C1012.44 -889.596 1074.85 -870.721 1138.78 -856.648C1155.13 -852.988 1171.32 -848.971 1187.3 -844.569C1203.3 -840.153 1219.09 -835.338 1234.67 -830.11C1258.04 -822.283 1280.93 -813.574 1303.3 -804.027C1372.4 -773.445 1445.7 -758.931 1518.27 -736.425C1613.82 -706.792 1674.6 -630.275 1705.65 -539.218C1711.85 -521.003 1716.87 -502.211 1720.78 -483.103C1737.45 -407.618 1783.17 -344.473 1816.55 -274.78C1884.76 -131.06 1812.19 19.9102 1746.95 147.617C1738.79 161.512 1729 173.755 1717.78 184.665C1672.92 228.302 1605.36 250.726 1545.84 272.503C1489.96 292.823 1456.58 343.641 1439.16 398.807C1423.68 451.07 1404.01 505.906 1368.85 546.2C1360.06 556.27 1350.29 565.432 1339.4 573.425C1246.13 627.449 1147.43 672.448 1037.85 689.149C922.458 706.566 815.049 669.546 706.593 644.425C685.329 640.917 664.023 638.661 642.676 636.831C557.274 629.54 471.321 628.893 384.708 620.185C317.215 613.651 241.014 593.332 211.263 527.284C203.822 510.583 199.517 493.538 197.054 476.218C194.592 458.898 193.987 441.316 193.698 423.597C197.467 358.898 174.249 297.197 118.364 256.545C74.1021 223.886 31.284 199.206 -0.654163 152.748C-42.7432 92.5062 -7.1876 30.0767 9.51048 -29.4363C23.2926 -77.3384 24.7506 -126.699 12.2476 -173.706C6.58074 -190.559 0.391179 -208.182 -4.42293 -226.162C-18.8515 -280.117 -18.9891 -337.553 19.6614 -384.368C71.9151 -447.513 143.026 -471.464 210.52 -517.193C241 -537.512 264.947 -560.018 286.391 -586.996C299.691 -606.476 313.556 -624.951 328.205 -642.423C430.773 -764.696 571.826 -837.663 713.43 -901.165C766.412 -925.116 825.186 -928.748 882.831 -920.728C905.031 -917.261 927.492 -912.515 950.297 -906.641L950.311 -906.668Z" stroke="#E0E0E0" stroke-width="0.53" stroke-miterlimit="10"/>
<path d="M948.578 -920.673C1013.17 -904.109 1077.76 -887.408 1143.38 -873.019C1160.08 -869.235 1176.64 -865.136 1193 -860.637C1209.35 -856.125 1225.5 -851.2 1241.43 -845.876C1265.32 -837.883 1288.73 -828.982 1311.59 -819.228C1334.68 -809.764 1357.17 -799.597 1381.12 -791.618C1475.46 -760.403 1576.34 -742.987 1646.73 -666.044C1684.46 -624.676 1706.97 -576.045 1722.93 -523.053C1728.2 -505.444 1733.14 -487.945 1738.27 -470.515C1756.32 -416.353 1782.44 -367.722 1812.19 -316.917C1904.36 -162.316 1837.59 5.35538 1768.42 148.057C1761.97 161.787 1754.24 174.815 1745.19 186.866C1727.09 210.955 1703.69 231.095 1675.76 244.893C1611.16 276.837 1534.25 284.816 1489.24 351.593C1460.22 394.418 1450.06 439.418 1431.19 484.417C1413.77 525.248 1386.15 561.993 1350.16 587.444C1338.16 595.932 1325.23 603.237 1311.42 609.262C1225.09 651.359 1137.28 689.824 1040.02 703.622C926.805 719.594 818.68 688.379 712.205 660.934C695.727 657.398 679.208 654.702 662.661 652.446C579.9 641.165 496.341 640.353 412.286 632.498C341.161 625.963 263.517 615.797 216.338 554.839C204.551 539.596 196.793 523.35 191.649 506.456C186.505 489.562 183.988 471.994 182.681 454.124C184.4 387.898 169.16 321.121 112.56 276.108C58.862 233.282 -5.00064 203.526 -33.3076 139.652C-57.9834 85.2151 -30.4054 29.3201 -10.8051 -22.2138C8.78147 -76.6504 13.8707 -136.177 -5.08316 -191.453C-9.80099 -205.334 -14.0787 -219.339 -17.3385 -233.44C-27.1318 -275.715 -27.8608 -318.72 -7.90286 -360.458C16.7729 -412.721 61.0352 -445.381 109.658 -477.325C171.347 -517.977 230.12 -552.809 273.709 -609.31C285.194 -623.727 297.243 -637.814 309.952 -651.516C418.806 -769.098 557.425 -848.215 703.292 -909.915C758.448 -933.137 818.68 -939.671 878.168 -932.917C901.496 -930.372 924.934 -926.19 948.578 -920.673V-920.673Z" stroke="#E0E0E0" stroke-width="0.53" stroke-miterlimit="10"/>
<path d="M946.831 -934.678C1014.63 -920.081 1080.66 -902.665 1147.92 -889.238C1165.03 -885.496 1181.95 -881.314 1198.66 -876.705C1215.38 -872.097 1231.87 -867.075 1248.15 -861.628C1272.57 -853.47 1296.49 -844.376 1319.86 -834.416C1376.76 -809.034 1434.82 -790.16 1494.32 -769.841C1553.82 -748.792 1610.44 -721.939 1653.98 -673.307C1690.62 -633.027 1713.86 -586.39 1731.82 -537.443C1737.8 -521.127 1743.21 -504.55 1748.33 -487.876C1755.59 -461.366 1765.74 -435.228 1778.81 -410.548C1835.41 -306.751 1891.29 -202.225 1865.89 -78.8378C1847.74 13.3481 1809.29 92.4649 1776.72 175.888C1766.51 196.234 1752.7 214.215 1736.36 229.733C1720.02 245.251 1701.15 258.32 1680.83 268.844C1622.04 298.601 1554.56 310.941 1512.46 368.28C1487.06 402.397 1474.72 439.418 1458.76 477.153C1438.63 525.055 1407.47 569.697 1365.43 599.591C1351.41 609.551 1336.18 617.874 1319.76 624.257C1228.72 666.602 1136.55 706.525 1034.96 718.865C922.472 731.934 814.347 703.622 707.997 676.603C682.798 671.54 657.49 666.89 632.044 663.025C606.598 659.159 581.014 656.077 555.252 654.261C432.066 644.095 247.754 651.166 189.985 528.605C181.732 511.092 176.065 490.938 173.52 467.716C169.889 428.522 167.716 389.328 150.303 353.037C119.093 286.99 52.3286 257.948 -2.82739 212.22C-55.8101 167.95 -79.7569 98.2566 -52.1789 34.3826C-22.4277 -34.5677 7.33725 -110.053 -16.9396 -185.51C-24.1195 -203.944 -29.2637 -222.571 -32.1384 -241.143C-46.5395 -334.004 -4.40917 -425.447 82.0797 -478.067C148.116 -517.99 211.978 -557.184 255.525 -620.329C266.777 -636.384 278.715 -651.351 291.26 -665.37C379.028 -763.567 496.107 -816.119 610.408 -880.901C655.399 -906.311 699.675 -925.172 750.471 -936.796C804.898 -948.407 857.151 -949.865 910.258 -941.364C922.403 -939.493 934.576 -937.25 946.831 -934.691V-934.678Z" stroke="#E0E0E0" stroke-width="0.53" stroke-miterlimit="10"/>
<path d="M945.085 -948.641C1014.61 -935.324 1082.84 -919.366 1152.5 -905.554C1169.99 -901.73 1187.26 -897.465 1204.33 -892.774C1221.4 -888.069 1238.26 -882.937 1254.88 -877.38C1279.82 -869.043 1304.26 -859.771 1328.11 -849.59C1394.16 -819.187 1461.64 -794.507 1530.59 -769.827C1632.2 -733.082 1692.96 -653.525 1735.11 -562.439C1743.54 -544.225 1751.21 -525.543 1758.33 -506.655C1772.97 -465.7 1786.04 -425.777 1807.81 -388.028C1856.44 -300.203 1893.45 -207.287 1883.29 -106.407C1875.31 -28.7484 1848.45 42.3893 1821.13 114.036C1813.08 137.327 1804.65 160.177 1795.23 182.367C1774.43 226.761 1741.05 262.323 1697.5 287.003C1653.96 312.413 1608.96 326.197 1567.6 356.683C1511.72 398.779 1495.03 462.653 1462.38 520.722C1438.97 561.553 1406.59 594.212 1368.26 618.273C1355.48 626.294 1342.04 633.351 1328.05 639.459C1235.95 679.685 1143.78 719.607 1041.46 732.677C925.347 747.19 813.591 720.337 703.265 692.713C685.618 688.228 667.929 684.431 650.227 681.115C561.689 664.579 472.394 660.452 381.063 647.741C321.561 639.762 262.774 625.963 217.054 584.596C186.931 556.655 172.97 521.987 164.979 484.885C160.99 466.326 158.487 447.163 155.763 427.944C151.747 377.002 125.613 332.732 85.6972 300.059C33.4434 257.233 -23.1567 228.206 -61.6284 170.137C-111.709 92.4786 -58.7261 14.0772 -34.7794 -59.2203C-21.7125 -98.4141 -17.366 -139.066 -27.4344 -178.893C-33.569 -196.158 -38.5069 -213.671 -41.6154 -231.28C-57.1581 -319.284 -26.9117 -409.31 48.6698 -468.589C105.27 -512.859 161.884 -550.608 208.457 -602.266C221.496 -617 233.628 -631.761 246.378 -646.11C259.129 -660.458 272.54 -674.367 286.693 -687.794C379.578 -776.348 489.161 -830.055 600.931 -891.027C696.002 -942.56 801.225 -970.143 907.149 -954.57C919.735 -952.933 932.348 -950.925 945.057 -948.614L945.085 -948.641Z" stroke="#E0E0E0" stroke-width="0.53" stroke-miterlimit="10"/>
<path d="M943.393 -962.659C1003.73 -952.741 1063.24 -940.401 1123.44 -928.748C1143.76 -924.91 1163.87 -920.59 1183.71 -915.693C1223.4 -905.912 1262.03 -893.833 1299.43 -879.649C1321.86 -871.148 1343.86 -861.875 1365.4 -851.929C1415.95 -828.625 1466.74 -807.576 1519.72 -788.702C1634.48 -748.325 1702.18 -659.468 1750.94 -558.298C1760.69 -538.062 1769.69 -517.344 1778.15 -496.406C1791.14 -464.242 1803.48 -433.041 1818.71 -401.826C1848.46 -343.028 1877.5 -287.147 1890.55 -219.641C1918.86 -83.185 1865.87 38.7575 1824.33 160.783C1816.58 181.666 1807.83 201.999 1797.32 220.337C1757.02 294.969 1677.19 324.01 1606.08 368.28C1575.6 387.155 1553.09 411.106 1534.95 442.321C1489.23 519.993 1447.14 601.283 1365 640.89C1343.86 651.895 1321.86 661.236 1299.39 670.399C1111.86 764.593 895.609 769.683 697.089 708.643C679.497 703.581 661.85 699.233 644.148 695.423C555.651 676.41 465.737 670.963 373.815 656.449C309.223 646.283 244.632 629.595 198.925 579.506C175.336 553.381 162.819 523.074 154.663 490.869C150.578 474.76 147.579 458.182 144.842 441.412C136.52 339.996 41.4486 290.635 -30.3916 230.393C-78.2851 189.741 -110.223 132.402 -96.4275 67.7986C-84.8186 13.3619 -57.9696 -28.7346 -44.1737 -81.7268C-35.4671 -115.844 -34.7381 -149.948 -40.7901 -184.038C-44.9027 -200.409 -48.754 -216.917 -51.615 -233.481C-60.1841 -283.158 -59.7852 -333.233 -36.9251 -380.048C0.81756 -458.436 73.3868 -503.435 139.423 -559.33C157.565 -575.302 174.263 -591.26 190.108 -608.883C205.734 -629.189 221.373 -648.352 237.754 -666.346C352.426 -792.32 503.644 -860.912 655.399 -929.505C723.622 -959.991 798.364 -975.233 872.777 -970.116C896.242 -968.933 919.694 -966.305 943.393 -962.659V-962.659Z" stroke="#E0E0E0" stroke-width="0.53" stroke-miterlimit="10"/>
<path d="M941.825 -976.816C1004.46 -968.713 1065.42 -956.373 1127.31 -945.133C1148.06 -941.295 1168.58 -936.879 1188.84 -931.885C1229.35 -921.897 1268.77 -909.599 1306.94 -895.126C1329.84 -886.445 1352.29 -876.994 1374.24 -866.814C1476.16 -816.285 1590.11 -787.243 1673.57 -702.321C1721.94 -652.961 1752.92 -593.599 1779.2 -532.174C1785.78 -516.821 1792.05 -501.331 1798.24 -485.826C1803.48 -470.776 1810.02 -456.992 1817.26 -442.464C1856.45 -362.618 1897.1 -285.689 1908.7 -195.676C1923.22 -84.6296 1890.56 20.6256 1857.54 123.006C1852.83 137.533 1847.94 151.909 1842.67 166.106C1834.76 187.402 1825.94 208.327 1815.72 227.876C1778.79 304.42 1704.05 341.44 1632.92 387.169C1574.87 424.918 1545.12 478.625 1508.1 535.236C1472.55 588.228 1429 628.866 1374.02 656.16C1352.3 667.056 1329.86 676.534 1306.94 685.339C1118.41 775.503 904.33 784.926 704.462 727.697C679.91 722.263 655.702 716.003 631.246 709.276C601.701 701.476 572.679 695.67 541.47 690.58C431.158 671.706 322.304 677.511 223.615 612.922C177.894 583.165 156.85 540.518 143.508 493.882C139.065 478.337 135.475 462.351 132.119 446.241C119.836 344.357 26.2223 295.725 -47.805 236.212C-147.223 156.366 -110.939 33.7085 -66.6763 -63.5538C-49.9782 -99.8449 -46.3607 -140.497 -53.9395 -180.365C-59.29 -199.652 -63.2101 -219.022 -65.3283 -238.323C-75.9744 -334.829 -42.1106 -429.491 37.1159 -495.429C82.8362 -532.449 124.925 -568.74 164.676 -610.424C179.655 -628.322 194.028 -646.027 208.663 -663.292C223.862 -679.718 240.423 -695.8 257.74 -711.318C292.374 -742.354 329.662 -771.024 369.248 -797.038C389.041 -810.039 409.425 -822.379 430.36 -834.059C567.603 -905.54 709.111 -989.733 868.802 -982.896C893.023 -982.14 917.3 -979.966 941.852 -976.802L941.825 -976.816Z" stroke="#E0E0E0" stroke-width="0.53" stroke-miterlimit="10"/>
<path d="M940.353 -991.164C1004.46 -983.226 1068.33 -972.344 1131.18 -961.573C1152.37 -957.679 1173.3 -953.195 1193.96 -948.105C1235.28 -937.924 1275.51 -925.378 1314.45 -910.63C1337.81 -901.785 1360.71 -892.141 1383.1 -881.754C1496.48 -827.194 1621.3 -788 1706.21 -684.203C1745.88 -635.82 1773.29 -582.58 1797.98 -527.992C1804.16 -514.345 1810.15 -500.615 1816.14 -486.844C1857.89 -394.59 1908.69 -305.306 1922.47 -200.794C1937.71 -87.5598 1908.69 21.3135 1875.9 127.449C1871.32 142.252 1866.35 156.903 1860.96 171.375C1852.89 193.098 1843.89 214.435 1834 235.318C1794.75 321.809 1710.56 365.35 1636.54 423.418C1579.21 468.418 1546.56 528.66 1499.38 583.11C1466 620.859 1427.54 649.158 1382.96 671.279C1360.72 682.161 1337.82 691.804 1314.44 700.664C1121.28 789.232 903.573 798.669 699.785 743.958C674.738 738.427 650.062 732.016 625.318 725.055C547.962 702.136 469.588 692.699 388.312 681.088C275.098 664.387 158.982 615.769 129.959 492.369C125.971 475.131 122.106 458.113 118.048 441.344C107.457 398.009 82.066 361.003 47.9546 331.232C-10.8326 279.698 -80.4996 241.949 -114.597 169.367C-137.1 120.736 -129.837 66.299 -111.695 16.9387C-88.4773 -48.3797 -55.0949 -112.983 -67.474 -184.176C-70.4038 -199.597 -73.1272 -215.033 -75.1491 -230.592C-79.2067 -261.697 -80.4996 -293.228 -76.1394 -325.653C-65.9748 -396.062 -26.0727 -452.672 24.0078 -501.303C66.0969 -541.955 108.915 -578.246 147.043 -621.086C163.012 -639.039 177.922 -656.84 193.272 -674.078C209.379 -691.013 226.365 -707.439 244.04 -723.273C297.05 -770.749 356.113 -812.776 420.126 -848.366C441.46 -860.225 463.343 -871.382 486.135 -882.332C605.305 -939.713 729.399 -1000.68 864.895 -995.91C889.901 -995.594 914.989 -993.902 940.339 -991.192L940.353 -991.164Z" stroke="#E0E0E0" stroke-width="0.53" stroke-miterlimit="10"/>
<path d="M939.019 -1005.62C1004.46 -999.198 1069.78 -989.761 1135.09 -978.026C1156.7 -974.064 1178.05 -969.483 1199.12 -964.297C1241.26 -953.924 1282.28 -941.13 1321.99 -926.093C1345.81 -917.069 1369.17 -907.246 1392 -896.653C1479.82 -853.305 1568.35 -819.187 1649.64 -756.771C1735.51 -690.242 1783.08 -600.01 1826.23 -507.48C1834.86 -488.977 1843.33 -470.377 1851.99 -451.86C1954.44 -274.078 1965.32 -59.2341 1894.52 131.948C1889.89 147.039 1884.83 161.966 1879.32 176.713C1871.1 198.848 1861.92 220.598 1851.84 241.921C1828.16 293.524 1794.05 338.537 1746.15 374.099C1661.97 435.8 1596.65 501.118 1531.35 579.52C1492.89 625.977 1445.71 661.539 1391.93 686.439C1369.18 697.321 1345.82 707.157 1322 716.182C1143.1 792.19 944.245 815.412 753.29 771.637C733.731 768.28 714.365 764.538 695.191 760.315C669.649 754.674 644.478 748.153 619.761 740.78C540.039 715.976 460.207 703.636 376.029 689.122C269.349 670.976 161.939 622.345 124.939 513.472C118.956 495.684 113.646 477.772 108.461 459.888C97.3611 411.133 72.6853 368.307 31.3252 337.822C-69.551 263.066 -180.578 162.887 -131.227 28.6184C-102.92 -47.5956 -65.906 -124.539 -85.6164 -206.655C-88.1197 -224.759 -89.9903 -242.891 -90.7193 -261.022C-92.1911 -297.286 -89.1238 -333.577 -77.5149 -369.868C-61.5458 -418.499 -33.2526 -459.151 0.858793 -496.887C46.5791 -546.247 93.7436 -589.073 136.947 -638.406C150.756 -654.268 164.387 -669.827 178.513 -684.891C195.115 -702.211 212.446 -718.953 230.464 -735.077C284.52 -783.46 344.751 -826.3 410.031 -862.577C431.79 -874.669 454.1 -886.033 476.933 -896.626C609.734 -959.248 750.526 -1020.22 900.093 -1008.36C913.023 -1007.74 926.007 -1006.79 939.074 -1005.58L939.019 -1005.62Z" stroke="#E0E0E0" stroke-width="0.53" stroke-miterlimit="10"/>
<path d="M937.822 -1020.29C1005.18 -1015.16 1071.94 -1005.72 1138.97 -994.48C1160.99 -990.449 1182.75 -985.771 1204.23 -980.489C1247.19 -969.923 1289 -956.882 1329.48 -941.57C1353.77 -932.38 1377.57 -922.365 1400.84 -911.58C1511.72 -857.652 1627.11 -809.021 1714.19 -714.661C1771.64 -651.145 1810.95 -578.067 1847.72 -503.339C1855.07 -488.399 1862.32 -473.39 1869.63 -458.381C1969.64 -276.251 1979.8 -58.5049 1913.11 136.419C1907.2 155.637 1900.6 174.595 1893.34 193.277C1886.08 211.959 1878.16 230.366 1869.6 248.47C1859.34 270.192 1848.01 291.186 1835.23 310.432C1819.41 333.461 1802 355.238 1780.95 375.558C1728.7 425.647 1672.1 462.653 1622.75 515.646C1555.98 588.228 1491.39 662.268 1400.83 701.517C1377.57 712.454 1353.76 722.469 1329.47 731.659C1152.48 802.342 957.986 830.655 769.755 791.282C742.988 787.224 716.552 782.381 690.514 776.631C664.477 770.88 638.825 764.235 613.612 756.724C523.3 726.142 433.317 712.344 337.516 691.296C231.565 668.074 139.395 605.644 106.742 500.403C101.666 484.073 96.577 467.826 91.2953 451.73C77.7195 409.661 51.5995 374.099 17.4881 344.343C-47.1035 289.177 -121.117 240.546 -147.251 155.624C-172.655 71.4304 -129.108 -6.24188 -105.891 -86.0878C-98.6282 -112.942 -95.726 -139.795 -95.7535 -167.612C-97.8992 -188.729 -100.444 -209.764 -101.984 -230.743C-106.62 -293.682 -102.259 -356.097 -71.7792 -415.624C-26.059 -504.907 51.5995 -566.594 115.091 -641.295C130.688 -659.977 146.864 -678.205 163.796 -695.855C231.482 -766.443 311.08 -827.607 399.797 -876.898C421.97 -889.211 444.72 -900.794 468.006 -911.58C603.145 -972.344 746.11 -1031.86 897.686 -1022.5C911 -1022.05 924.37 -1021.29 937.836 -1020.29H937.822Z" stroke="#E0E0E0" stroke-width="0.53" stroke-miterlimit="10"/>
<path d="M936.818 -1035.21C989.223 -1031.86 1040.75 -1026.78 1091.96 -1019.13C1109.05 -1016.72 1126.04 -1014.01 1142.86 -1010.93C1210.19 -998.607 1275.14 -980.447 1337.01 -957.047C1361.75 -947.692 1386.02 -937.498 1409.73 -926.506C1513.91 -874.353 1620.59 -825.722 1706.94 -741.529C1774.67 -675.591 1820.23 -595.553 1862.38 -513.96C1870.81 -497.644 1879.1 -481.259 1887.41 -464.916C1972.55 -296.584 1997.96 -101.331 1947.77 81.4042C1943.08 101.476 1937.77 121.313 1931.74 140.876C1919.69 180.015 1904.85 218.122 1887.41 255.004C1876.94 277.126 1865.54 298.807 1852.9 319.167C1837.58 345.787 1818.71 368.28 1796.95 390.058C1725.11 462.64 1649.64 522.882 1578.51 596.193C1529.16 647.727 1472.56 687.65 1409.74 716.512C1386.03 727.559 1361.77 737.753 1337.02 747.122C1321.56 752.968 1305.9 758.499 1290.05 763.713C1122.77 824.106 941.343 840.078 766.66 807.763C748.476 805.039 730.43 801.957 712.563 798.463C676.829 791.475 641.782 782.849 607.533 772.641C581.839 764.992 556.366 756.573 530.012 747.933C474.705 731.907 420.278 721.025 361.491 708.685C246.832 685.463 141.596 626.665 100.236 515.618C93.8811 498.917 87.6778 482.23 81.3645 465.611C75.0511 448.993 68.3251 432.471 58.9582 416.389C47.9958 397.308 34.2137 380.606 18.2446 364.648C-55.7827 296.427 -150.841 236.9 -165.366 129.471C-174.801 55.4309 -143.592 -10.6166 -123.276 -80.2961C-116.743 -105.705 -112.397 -131.101 -111.915 -157.129C-112.782 -176.692 -114.611 -196.103 -115.876 -215.459C-119.645 -273.541 -117.114 -331.431 -96.4275 -388.055C-57.9696 -494.026 28.3955 -568.066 99.6306 -651.145C115.407 -670.253 131.899 -688.825 149.147 -706.792C235.361 -796.653 340.542 -871.547 459.135 -926.506C482.847 -937.498 507.111 -947.692 532.13 -957.473C648.136 -1004.27 769.342 -1042.02 895.513 -1036.88C909.199 -1036.6 922.967 -1036.04 936.818 -1035.21V-1035.21Z" stroke="#E0E0E0" stroke-width="0.53" stroke-miterlimit="10"/>
<path d="M936.02 -1050.4C994.299 -1046.37 1051.63 -1042.74 1109.11 -1033.65C1128.05 -1030.83 1146.82 -1027.55 1165.41 -1023.84C1239.74 -1008.98 1311.11 -987.106 1378.59 -959.028C1401.08 -949.673 1423.14 -939.616 1444.75 -928.913C1639.46 -843.881 1802.74 -697.258 1890.08 -501.922C1900.55 -481.823 1910.26 -461.325 1919.19 -440.483C1992.15 -282.084 2008.85 -102.073 1970.31 68.0049C1966.38 86.7008 1961.87 105.204 1956.78 123.487C1946.57 160.053 1933.99 195.78 1919.16 230.531C1910.26 251.373 1900.56 271.871 1890.08 291.97C1820.17 432.154 1688.81 517.805 1577.77 626.679C1520.44 682.574 1451.5 719.58 1378.59 749.089C1356.09 758.444 1333.17 767.124 1309.84 775.076C1290.41 781.707 1270.68 787.843 1250.7 793.607C1098.08 841.536 936.24 850.244 778.736 826.403C761.804 824.147 745.01 821.547 728.34 818.603C695.012 812.702 662.263 805.383 630.146 796.743C606.061 790.264 582.334 783.028 559.02 775.076C484.856 748.635 410.828 732.663 333.184 713.059C222.872 685.476 125.627 619.429 84.2667 511.271C78.9987 497.486 73.6482 483.784 68.1326 470.192C62.6032 456.6 56.8813 443.118 49.7702 429.925C41.4624 412.564 29.1245 398.05 15.3287 384.252C-60.1428 306.593 -162.463 244.893 -176.988 128.756C-186.424 53.2711 -156.673 -14.2347 -137.072 -86.0878C-128.366 -120.205 -126.908 -154.323 -129.095 -189.445C-130.126 -204.715 -130.869 -220.013 -131.13 -235.366C-131.667 -266.085 -130.291 -297.052 -125.45 -328.514C-102.947 -472.234 6.62201 -568.039 92.9459 -671.602C105.889 -686.927 119.341 -701.895 133.288 -716.463C230.905 -818.513 352.509 -901.674 490.289 -959C512.778 -968.355 535.72 -977.036 559.378 -985.606C655.399 -1020.95 756.275 -1049.26 859.132 -1051.03C884.551 -1051.82 910.162 -1051.56 936.034 -1050.39L936.02 -1050.4Z" stroke="#E0E0E0" stroke-width="0.53" stroke-miterlimit="10"/>
<path d="M935.415 -1065.88C974.712 -1064.52 1014.63 -1061.61 1053.97 -1057.5C1073.57 -1055.51 1093.03 -1053.08 1112.31 -1050.21C1208.75 -1035.83 1300.82 -1009.97 1386.73 -974.243C1409.65 -964.723 1432.11 -954.488 1454.1 -943.592C1627.12 -862.728 1782.42 -739.341 1873.52 -569.511C1885.5 -549.535 1896.93 -529.436 1907.59 -508.966C1915.6 -493.627 1923.15 -478.054 1930.24 -462.274C1937.34 -446.495 1943.98 -430.523 1950.2 -414.345C2009.57 -266.085 2023.35 -102.046 1992.65 53.9589C1989.42 71.1828 1985.68 88.2553 1981.44 105.163C1964.51 172.779 1939.58 237.698 1907.59 299.082C1896.93 319.553 1885.47 339.61 1873.15 358.925C1849.9 395.904 1822.33 430.008 1789.67 460.494C1682.99 561.388 1585.02 668.817 1454.09 733.626C1432.11 744.604 1409.63 754.839 1386.72 764.359C1369.54 771.499 1352.11 778.254 1334.45 784.596C1316.79 790.938 1298.89 796.881 1280.79 802.384C1118.39 854.619 944.947 867.689 775.875 843.036C758.627 840.752 741.516 838.111 724.557 835.098C690.624 829.086 657.256 821.644 624.561 812.853C600.037 806.249 575.884 798.889 552.129 790.8C524.758 781.308 497.909 771.155 468.887 763.162C326.65 723.239 163.369 694.212 90.0711 550.492C81.9009 534.341 74.157 518.191 66.537 502.081C58.9307 485.972 51.4619 469.917 43.8694 453.931C30.5687 425.647 12.4264 401.682 -9.34714 379.189C-70.3075 318.947 -139.975 268.129 -173.357 187.567C-212.544 93.9369 -173.357 -1.1518 -151.583 -96.2405C-145.05 -125.268 -141.419 -152.851 -144.747 -181.245C-145.449 -195.676 -145.958 -210.108 -146.137 -224.58C-146.494 -253.511 -145.531 -282.539 -142.134 -311.814C-126.165 -458.436 -19.4843 -563.677 68.5727 -670.941C80.4016 -685.359 92.6845 -699.473 105.366 -713.258C206.93 -823.576 335.536 -913.258 482.146 -974.229C505.047 -983.749 528.403 -992.581 552.157 -1000.7C650.323 -1036.19 751.929 -1061.6 856.574 -1065.67C882.625 -1066.73 908.896 -1066.75 935.429 -1065.86L935.415 -1065.88Z" stroke="#E0E0E0" stroke-width="0.53" stroke-miterlimit="10"/>
<path d="M2027.21 -105.004C2027.71 -68.6714 2024.81 -32.3803 2019.97 3.66316C2017.7 21.5061 2014.94 39.1839 2011.67 56.7241C1995.29 144.37 1965.81 228.068 1925.1 306.139C1914.25 326.968 1902.58 347.383 1890.16 367.345C1778.78 522.882 1630.74 656.435 1463.44 748.36C1441.05 759.448 1418.17 769.862 1394.86 779.561C1359.88 794.102 1323.9 807.034 1287.02 818.26C1268.59 823.872 1249.93 829.059 1231.06 833.832C1090.81 871.279 943.489 880.001 799.465 862.819C777.347 860.384 755.45 857.357 733.759 853.766C668.713 842.981 605.69 827.05 545.238 806.456C521.058 798.229 497.207 789.273 471.981 780.428C323.734 734.809 148.831 699.976 71.9013 544.646C64.2813 529.582 56.84 514.518 49.4126 499.522C41.9851 484.513 34.5714 469.56 27.0063 454.716C17.4606 435.043 5.85174 416.897 -10.1173 401.655C-113.139 303.677 -232.144 196.262 -198.046 36.5701C-182.077 -41.0885 -155.957 -111.497 -161.954 -189.403C-162.188 -204.866 -162.174 -220.357 -161.762 -235.902C-160.95 -266.993 -158.612 -298.277 -153.77 -329.973C-134.17 -451.915 -58.6986 -546.275 16.6904 -636.218C31.9305 -655.079 46.7442 -673.679 62.0806 -691.824C169.421 -818.816 310.75 -921.636 473.989 -989.486C497.304 -999.184 521.071 -1008.15 545.252 -1016.39C714.901 -1079.04 897.782 -1095 1076.01 -1072.01C1099.19 -1069.33 1122.13 -1066 1144.83 -1062.05C1258.3 -1042.29 1365.49 -1006.82 1463.44 -958.312C1485.83 -947.224 1507.74 -935.462 1529.2 -923.135C1679.36 -844.596 1805.63 -724.112 1890.19 -577.338C1902.58 -557.308 1914.25 -536.893 1925.1 -516.064C1933.24 -500.45 1940.93 -484.602 1948.17 -468.561C1955.4 -452.507 1962.15 -436.246 1968.44 -419.793C1999.4 -336.507 2021.16 -248.682 2025.77 -159.729C2026.84 -141.611 2027.31 -123.369 2027.2 -105.004H2027.21Z" stroke="#E0E0E0" stroke-width="0.53" stroke-miterlimit="10"/>
</g>
<defs>
<clipPath id="clip0_127_7">
<rect width="1728" height="1117" fill="white"/>
</clipPath>
</defs>
</svg>
